<?xml version="1.0" encoding="UTF-8"?>
<svg width="500px" height="232px" viewBox="0 0 500 232" version="1.1" xmlns="http://www.w3.org/2000/svg" xmlns:xlink="http://www.w3.org/1999/xlink">
    <!-- Generator: Sketch 51.2 (57519) - http://www.bohemiancoding.com/sketch -->
    <title>bm-arrow-left</title>
    <desc>Created with Sketch.</desc>
    <defs></defs>
    <g id="arrow-left" stroke="none" stroke-width="1" fill="none" fill-rule="evenodd">
        <path d="M500,115.846764 C467.577715,128.923007 437.910709,145.114831 410.998093,164.422721 C384.085477,183.730612 359.716151,206.256146 337.889383,232 C337.677473,230.569786 337.518543,229.037437 337.412587,227.402906 C337.306632,225.768376 337.253655,223.725243 337.253655,221.273448 C337.253655,205.949725 341.544776,190.217606 350.127146,174.076618 C358.709515,157.93563 371.68883,141.284102 389.06548,124.121532 L0,124.121532 L0,107.878468 L389.06548,107.878468 C371.47692,90.511582 358.444628,73.8600533 349.968214,57.9233818 C341.491799,41.9867103 337.253655,26.1524345 337.253655,10.4200793 C337.253655,7.76396734 337.306632,5.61867836 337.412587,3.98414795 C337.518543,2.34961754 337.677473,1.02158151 337.889383,0 C359.928061,25.9481703 384.403341,48.5247829 411.315957,67.7305152 C438.228573,86.9362475 467.789625,102.974837 500,115.846764 Z" id="→-copy-7" fill="#000000" transform="translate(250.000000, 116.000000) scale(-1, 1) translate(-250.000000, -116.000000) "></path>
    </g>
</svg>