<?xml version="1.0" encoding="utf-8"?>
<!-- Generator: Adobe Illustrator 16.0.0, SVG Export Plug-In . SVG Version: 6.00 Build 0)  -->
<!DOCTYPE svg PUBLIC "-//W3C//DTD SVG 1.1//EN" "http://www.w3.org/Graphics/SVG/1.1/DTD/svg11.dtd">
<svg version="1.1" id="Layer_1" xmlns="http://www.w3.org/2000/svg" xmlns:xlink="http://www.w3.org/1999/xlink" x="0px" y="0px"
	 width="392.116px" height="500px" viewBox="-137.176 -175 392.116 500" enable-background="new -137.176 -175 392.116 500"
	 xml:space="preserve">
<g>
	<title>bm-bc-logo</title>
	<desc>Created with Sketch.</desc>
	<g>
		<g>
			<path id="SVGID_1_" d="M234.504,192.285v0.273c9.537,3.45,9.537,10.488,5.176,20.97h0.41c5.859-10.345,11.312-18.203,14.85-20.97
				v-0.273H234.504z M225.65,272.019v-28.965l-15.124-32.695c-4.225-9.245-1.23-14.906,6.537-17.8v-0.273h-43.464v0.273
				c4.775,2.767,9.128,8.825,15.124,21.106l15.67,32.422v25.932c0,7.314-3.951,13.658-10.348,16.556v0.273h41.959v-0.273
				C229.598,285.677,225.65,279.336,225.65,272.019z M152.118,267.604l-17.164-27.592c13.619-3.033,20.846-11.172,20.846-21.79
				c0-17.526-15.533-25.938-29.434-25.938h-8.717v0.273c9.127,2.487,16.211,14.905,16.211,27.181c0,14.069-7.768,20-18.122,20
				h-3.128v0.273l27.793,48.835h28.477v-0.273C164.237,286.094,159.338,279.192,152.118,267.604z M109.468,272.019v-79.733H77.864
				v0.273c6.263,2.894,10.218,9.241,10.218,16.556v62.904c0,7.314-3.962,13.658-10.218,16.556v0.273h41.692v-0.273
				C113.28,285.677,109.468,279.336,109.468,272.019z M-16.456,267.604h-0.409c-4.497,11.314-9.945,17.383-13.898,20.97v0.273h21.25
				v-0.273C-19.042,285.124-19.453,277.956-16.456,267.604z M46.218,267.331l-32.837-77.253h-0.27L2.618,216.286l16.893,42.213
				h-33.105l-0.684,1.934h34.606l4.09,10.205c3.813,9.375,0.687,15.036-7.08,17.93v0.273h43.461v-0.273
				C56.027,285.813,51.535,279.883,46.218,267.331z M-62.916,267.604l-17.17-27.592c13.623-3.033,20.847-11.172,20.847-21.79
				c0-17.526-15.532-25.938-29.429-25.938h-8.718v0.273c9.128,2.487,16.211,14.905,16.211,27.181c0,14.069-7.764,20-18.12,20h-3.138
				v0.273l27.801,48.835h28.477v-0.273C-50.792,286.094-55.696,279.192-62.916,267.604z M-105.566,272.019v-79.733h-31.61v0.273
				c6.27,2.894,10.217,9.241,10.217,16.556v62.904c0,7.314-3.95,13.658-10.217,16.556v0.273h41.689v-0.273
				C-101.752,285.677-105.566,279.336-105.566,272.019z"/>
		</g>
		<g>
			<defs>
				<path id="SVGID_2_" d="M234.504,192.285v0.273c9.537,3.45,9.537,10.488,5.176,20.97h0.41
					c5.859-10.345,11.312-18.203,14.85-20.97v-0.273H234.504z M225.65,272.019v-28.965l-15.124-32.695
					c-4.225-9.245-1.23-14.906,6.537-17.8v-0.273h-43.464v0.273c4.775,2.767,9.128,8.825,15.124,21.106l15.67,32.422v25.932
					c0,7.314-3.951,13.658-10.348,16.556v0.273h41.959v-0.273C229.598,285.677,225.65,279.336,225.65,272.019z M152.118,267.604
					l-17.164-27.592c13.619-3.033,20.846-11.172,20.846-21.79c0-17.526-15.533-25.938-29.434-25.938h-8.717v0.273
					c9.127,2.487,16.211,14.905,16.211,27.181c0,14.069-7.768,20-18.122,20h-3.128v0.273l27.793,48.835h28.477v-0.273
					C164.237,286.094,159.338,279.192,152.118,267.604z M109.468,272.019v-79.733H77.864v0.273
					c6.263,2.894,10.218,9.241,10.218,16.556v62.904c0,7.314-3.962,13.658-10.218,16.556v0.273h41.692v-0.273
					C113.28,285.677,109.468,279.336,109.468,272.019z M-16.456,267.604h-0.409c-4.497,11.314-9.945,17.383-13.898,20.97v0.273
					h21.25v-0.273C-19.042,285.124-19.453,277.956-16.456,267.604z M46.218,267.331l-32.837-77.253h-0.27L2.618,216.286
					l16.893,42.213h-33.105l-0.684,1.934h34.606l4.09,10.205c3.813,9.375,0.687,15.036-7.08,17.93v0.273h43.461v-0.273
					C56.027,285.813,51.535,279.883,46.218,267.331z M-62.916,267.604l-17.17-27.592c13.623-3.033,20.847-11.172,20.847-21.79
					c0-17.526-15.532-25.938-29.429-25.938h-8.718v0.273c9.128,2.487,16.211,14.905,16.211,27.181c0,14.069-7.764,20-18.12,20
					h-3.138v0.273l27.801,48.835h28.477v-0.273C-50.792,286.094-55.696,279.192-62.916,267.604z M-105.566,272.019v-79.733h-31.61
					v0.273c6.27,2.894,10.217,9.241,10.217,16.556v62.904c0,7.314-3.95,13.658-10.217,16.556v0.273h41.689v-0.273
					C-101.752,285.677-105.566,279.336-105.566,272.019z"/>
			</defs>
			<clipPath id="SVGID_4_">
				<use xlink:href="#SVGID_2_"  overflow="visible"/>
			</clipPath>
		</g>
	</g>
	<g>
		<g>
			<path id="SVGID_3_" d="M205.208,170.098v-0.273c-11.445-4.277-23.021-30.901-23.021-58.496c0-23.171,8.444-36.556,14.851-40.143
				v-0.273c-19.212,3.724-38.562,20.28-38.562,49.521C158.475,154.648,186.135,170.378,205.208,170.098z M213.384,169.407v0.273
				c19.212-3.58,38.965-20.273,38.965-49.661c0-34.212-27.793-50.072-47.146-49.662v0.28c11.859,4.831,23.438,30.625,23.438,58.49
				C228.648,152.578,220.057,166.101,213.384,169.407z M112.87,123.887v0.28h2.865c23.431,0,33.926-10.762,33.926-25.938
				c0-17.383-14.44-26.211-29.023-26.211h-7.768v0.273c8.451,2.761,14.584,15.456,14.584,27.318
				C127.454,114.505,121.177,122.649,112.87,123.887z M73.088,168.581h41.692v-0.273c-6.263-2.897-10.075-9.245-10.075-16.55v-79.74
				H73.088v0.273c6.27,2.897,10.218,9.245,10.218,16.556v62.91c0,7.302-3.952,13.652-10.218,16.55V168.581z M-40.516,147.337h-0.41
				c-0.27,10.762-5.036,18.073-11.307,20.971v0.273h23.978v-0.273C-35.338,165.41-40.242,158.099-40.516,147.337z M63.299,72.018
				H31.832v79.74c0,7.302-3.954,13.652-10.22,16.55v0.273h41.694v-0.273c-6.263-2.897-10.078-9.245-10.078-16.55v-62.91
				c0-7.312,3.815-13.659,10.078-16.556v-0.273H63.299z M-35.475,95.886l31.609,72.698h0.271l10.763-25.931l-30.111-70.635h-29.29
				v0.28C-45.961,74.499-40.516,84.297-35.475,95.886z M-97.389,168.171v0.41h34.199l2.044-32.006h-0.276
				C-69.049,160.859-78.318,166.79-97.389,168.171z M-97.389,116.022v0.279c7.63,1.928,11.994,9.238,15.124,19.447h0.273v-36.42
				h-0.273C-85.942,108.301-89.896,114.362-97.389,116.022z M-97.389,72.018v0.41c17.439,1.517,26.57,6.485,33.654,29.108h0.273
				l-1.908-29.518H-97.389z M-105.703,72.018h-31.473v0.273c6.27,2.897,10.217,9.245,10.217,16.556v62.91
				c0,7.302-3.95,13.652-10.217,16.55v0.273h31.47V72.018H-105.703z"/>
		</g>
		<g>
			<defs>
				<path id="SVGID_6_" d="M205.208,170.098v-0.273c-11.445-4.277-23.021-30.901-23.021-58.496c0-23.171,8.444-36.556,14.851-40.143
					v-0.273c-19.212,3.724-38.562,20.28-38.562,49.521C158.475,154.648,186.135,170.378,205.208,170.098z M213.384,169.407v0.273
					c19.212-3.58,38.965-20.273,38.965-49.661c0-34.212-27.793-50.072-47.146-49.662v0.28c11.859,4.831,23.438,30.625,23.438,58.49
					C228.648,152.578,220.057,166.101,213.384,169.407z M112.87,123.887v0.28h2.865c23.431,0,33.926-10.762,33.926-25.938
					c0-17.383-14.44-26.211-29.023-26.211h-7.768v0.273c8.451,2.761,14.584,15.456,14.584,27.318
					C127.454,114.505,121.177,122.649,112.87,123.887z M73.088,168.581h41.692v-0.273c-6.263-2.897-10.075-9.245-10.075-16.55
					v-79.74H73.088v0.273c6.27,2.897,10.218,9.245,10.218,16.556v62.91c0,7.302-3.952,13.652-10.218,16.55V168.581z
					 M-40.516,147.337h-0.41c-0.27,10.762-5.036,18.073-11.307,20.971v0.273h23.978v-0.273
					C-35.338,165.41-40.242,158.099-40.516,147.337z M63.299,72.018H31.832v79.74c0,7.302-3.954,13.652-10.22,16.55v0.273h41.694
					v-0.273c-6.263-2.897-10.078-9.245-10.078-16.55v-62.91c0-7.312,3.815-13.659,10.078-16.556v-0.273H63.299z M-35.475,95.886
					l31.609,72.698h0.271l10.763-25.931l-30.111-70.635h-29.29v0.28C-45.961,74.499-40.516,84.297-35.475,95.886z M-97.389,168.171
					v0.41h34.199l2.044-32.006h-0.276C-69.049,160.859-78.318,166.79-97.389,168.171z M-97.389,116.022v0.279
					c7.63,1.928,11.994,9.238,15.124,19.447h0.273v-36.42h-0.273C-85.942,108.301-89.896,114.362-97.389,116.022z M-97.389,72.018
					v0.41c17.439,1.517,26.57,6.485,33.654,29.108h0.273l-1.908-29.518H-97.389z M-105.703,72.018h-31.473v0.273
					c6.27,2.897,10.217,9.245,10.217,16.556v62.91c0,7.302-3.95,13.652-10.217,16.55v0.273h31.47V72.018H-105.703z"/>
			</defs>
			<clipPath id="SVGID_8_">
				<use xlink:href="#SVGID_6_"  overflow="visible"/>
			</clipPath>
		</g>
	</g>
	<g>
		<g>
			<path id="SVGID_5_" d="M230.819-48.253v0.276c10.085,2.487,17.175,9.243,23.711,24.831h0.273l-2.317-25.107H230.819z
				 M222.652-48.253h-21.394v79.736c0,7.311-3.955,13.657-10.215,16.554v0.277h41.696v-0.277
				c-6.27-2.897-10.085-9.243-10.085-16.554v-79.736H222.652z M193.088-48.253h-21.804l-2.178,25.107h0.28
				c6.536-15.588,13.619-22.347,23.701-24.831V-48.253z M74.92,27.07h-0.41c-0.273,10.763-5.039,18.07-11.309,20.97v0.276h23.984
				v-0.276C80.096,45.14,75.194,37.831,74.92,27.07z M142.909-27.01h0.41c0.273-10.896,5.043-18.069,11.312-20.97v-0.277h-23.975
				v0.277C137.733-45.077,142.642-37.907,142.909-27.01z M144.002,50.244h0.404V16.587l-50.273-64.84H63.206v0.276
				c3.955,1.517,8.987,7.45,14.847,14.764L144.002,50.244z M7.681,49.831v-0.276C-3.766,45.277-15.35,18.649-15.35-8.94
				c0-23.172,8.451-36.553,14.854-40.143v-0.273c-19.209,3.724-38.556,20.276-38.556,49.526
				C-39.056,34.38-11.399,50.107,7.681,49.831z M15.855,49.144v0.276c19.212-3.587,38.961-20.28,38.961-49.665
				c0-34.209-27.791-50.073-47.139-49.66v0.276C19.532-44.796,31.107-19,31.107,8.867C31.11,32.31,22.528,45.833,15.855,49.144z
				 M-96.438-48.807v-0.276c-18.667,3.59-39.1,18.899-39.1,49.253c0,33.517,25.749,49.801,44.146,49.801
				c18.804,0,29.563-13.524,36.784-33.524h-0.273c-8.579,12-17.847,15.863-27.383,15.863c-17.987,0-31.476-16.83-31.476-43.456
				C-113.741-36.664-103.795-44.943-96.438-48.807z M-88.399-49.907v0.277c11.173,5.107,21.258,16.417,30.384,33.387h0.273
				l-1.907-33.11c-1.362,0.414-3.403,0.693-6.403,0.693C-73.686-48.664-78.042-49.907-88.399-49.907z"/>
		</g>
		<g>
			<defs>
				<path id="SVGID_10_" d="M230.819-48.253v0.276c10.085,2.487,17.175,9.243,23.711,24.831h0.273l-2.317-25.107H230.819z
					 M222.652-48.253h-21.394v79.736c0,7.311-3.955,13.657-10.215,16.554v0.277h41.696v-0.277
					c-6.27-2.897-10.085-9.243-10.085-16.554v-79.736H222.652z M193.088-48.253h-21.804l-2.178,25.107h0.28
					c6.536-15.588,13.619-22.347,23.701-24.831V-48.253z M74.92,27.07h-0.41c-0.273,10.763-5.039,18.07-11.309,20.97v0.276h23.984
					v-0.276C80.096,45.14,75.194,37.831,74.92,27.07z M142.909-27.01h0.41c0.273-10.896,5.043-18.069,11.312-20.97v-0.277h-23.975
					v0.277C137.733-45.077,142.642-37.907,142.909-27.01z M144.002,50.244h0.404V16.587l-50.273-64.84H63.206v0.276
					c3.955,1.517,8.987,7.45,14.847,14.764L144.002,50.244z M7.681,49.831v-0.276C-3.766,45.277-15.35,18.649-15.35-8.94
					c0-23.172,8.451-36.553,14.854-40.143v-0.273c-19.209,3.724-38.556,20.276-38.556,49.526
					C-39.056,34.38-11.399,50.107,7.681,49.831z M15.855,49.144v0.276c19.212-3.587,38.961-20.28,38.961-49.665
					c0-34.209-27.791-50.073-47.139-49.66v0.276C19.532-44.796,31.107-19,31.107,8.867C31.11,32.31,22.528,45.833,15.855,49.144z
					 M-96.438-48.807v-0.276c-18.667,3.59-39.1,18.899-39.1,49.253c0,33.517,25.749,49.801,44.146,49.801
					c18.804,0,29.563-13.524,36.784-33.524h-0.273c-8.579,12-17.847,15.863-27.383,15.863c-17.987,0-31.476-16.83-31.476-43.456
					C-113.741-36.664-103.795-44.943-96.438-48.807z M-88.399-49.907v0.277c11.173,5.107,21.258,16.417,30.384,33.387h0.273
					l-1.907-33.11c-1.362,0.414-3.403,0.693-6.403,0.693C-73.686-48.664-78.042-49.907-88.399-49.907z"/>
			</defs>
			<clipPath id="SVGID_12_">
				<use xlink:href="#SVGID_10_"  overflow="visible"/>
			</clipPath>
		</g>
	</g>
	<g>
		<rect x="-137.176" y="-175" width="392.116" height="18.18"/>
	</g>
	<g>
		<rect x="-137.176" y="-77.56" width="392.116" height="6.056"/>
	</g>
	<g>
		<rect x="-137.176" y="306.823" width="392.116" height="18.177"/>
	</g>
</g>
<g>
	<g>
		<path id="SVGID_7_" d="M-121.625-118.197h-2.227c-0.516,0.051-0.626,0.156-0.626,0.524v5.773c0,5.666,0.054,6.719,0.626,7.765
			c0.573,1.052,2.383,1.364,4.357,1.364c3.109,0,5.964-1.572,5.964-6.56C-113.535-114.997-116.339-118.197-121.625-118.197
			 M-121.782-132.943h-2.07c-0.41,0-0.626,0.156-0.626,0.684v10.549c0.054,0.368,0.159,0.47,0.677,0.47
			c1.14,0.054,1.913,0.104,3.06,0.104c2.376,0,3-0.417,3.68-1.204c1.139-1.416,1.189-2.676,1.189-4.304
			C-115.872-129.271-116.909-132.943-121.782-132.943 M-116.549-100.458h-11.4h-9.227v-0.472c2.487-0.734,5.233-1.577,5.233-7.035
			v-20.309c0-5.35-2.643-6.247-5.233-6.927v-0.526h20.576c5.651,0,7.831,3.986,7.831,7.346c0,3.517-1.657,6.51-6.893,8.501
			c5.803,1.106,9.896,4.412,9.896,9.762C-105.77-106.286-107.996-100.458-116.549-100.458"/>
	</g>
	<g>
		<defs>
			<path id="SVGID_14_" d="M-121.625-118.197h-2.227c-0.516,0.051-0.626,0.156-0.626,0.524v5.773c0,5.666,0.054,6.719,0.626,7.765
				c0.573,1.052,2.383,1.364,4.357,1.364c3.109,0,5.964-1.572,5.964-6.56C-113.535-114.997-116.339-118.197-121.625-118.197
				 M-121.782-132.943h-2.07c-0.41,0-0.626,0.156-0.626,0.684v10.549c0.054,0.368,0.159,0.47,0.677,0.47
				c1.14,0.054,1.913,0.104,3.06,0.104c2.376,0,3-0.417,3.68-1.204c1.139-1.416,1.189-2.676,1.189-4.304
				C-115.872-129.271-116.909-132.943-121.782-132.943 M-116.549-100.458h-11.4h-9.227v-0.472c2.487-0.734,5.233-1.577,5.233-7.035
				v-20.309c0-5.35-2.643-6.247-5.233-6.927v-0.526h20.576c5.651,0,7.831,3.986,7.831,7.346c0,3.517-1.657,6.51-6.893,8.501
				c5.803,1.106,9.896,4.412,9.896,9.762C-105.77-106.286-107.996-100.458-116.549-100.458"/>
		</defs>
		<clipPath id="SVGID_16_">
			<use xlink:href="#SVGID_14_"  overflow="visible"/>
		</clipPath>
	</g>
</g>
<g>
	<g>
		<path id="SVGID_9_" d="M-63.992-135.2c-2.537,0.68-5.181,1.574-5.181,6.927v9.707c0,6.089-0.729,11.336-3.938,14.8
			c-2.85,3.096-6.947,4.513-11.25,4.513c-8.348,0-14.824-3.991-14.824-13.33v-15.693c0-5.35-2.644-6.247-5.233-6.927v-0.525h8.29
			h9.743v0.525c-2.536,0.681-5.179,1.574-5.179,6.927v15.483c0,8.29,3.989,10.436,8.657,10.436c2.85,0,5.649-1.413,7.36-3.616
			c1.813-2.36,2.176-5.09,2.176-11.914v-10.389c0-5.35-2.643-6.247-5.234-6.927v-0.525h8.288h6.323v0.529H-63.992z"/>
	</g>
	<g>
		<defs>
			<path id="SVGID_18_" d="M-63.992-135.2c-2.537,0.68-5.181,1.574-5.181,6.927v9.707c0,6.089-0.729,11.336-3.938,14.8
				c-2.85,3.096-6.947,4.513-11.25,4.513c-8.348,0-14.824-3.991-14.824-13.33v-15.693c0-5.35-2.644-6.247-5.233-6.927v-0.525h8.29
				h9.743v0.525c-2.536,0.681-5.179,1.574-5.179,6.927v15.483c0,8.29,3.989,10.436,8.657,10.436c2.85,0,5.649-1.413,7.36-3.616
				c1.813-2.36,2.176-5.09,2.176-11.914v-10.389c0-5.35-2.643-6.247-5.234-6.927v-0.525h8.288h6.323v0.529H-63.992z"/>
		</defs>
		<clipPath id="SVGID_20_">
			<use xlink:href="#SVGID_18_"  overflow="visible"/>
		</clipPath>
	</g>
</g>
<g>
	<g>
		<path id="SVGID_11_" d="M-42.812-133.05c-1.4,0-2.697,0.054-3.574,0.156c-0.417,0.054-0.573,0.371-0.573,0.894v13.174
			c0,0.363,0.054,0.734,0.573,0.942c1.761,0.737,2.852,0.947,4.611,0.947c2.904,0,3.216-0.315,4.25-1.473
			c1.087-1.206,1.763-3.2,1.763-5.35C-35.763-129.113-37.885-133.05-42.812-133.05 M-23.686-99.777
			c-8.553,0-12.287-4.04-17.57-14.536c-1.66,0.159-3.525,0.057-5.13-0.207c-0.363-0.054-0.626-0.054-0.626-0.054l0.054,6.613
			c0.054,5.457,2.697,6.351,5.184,7.083v0.425h-9.227h-8.811v-0.425c2.484-0.732,5.233-1.626,5.233-7.083v-20.312
			c0-5.354-2.643-6.247-5.233-6.927v-0.526h8.286c2.544,0,9.338-0.211,13.428-0.211c8.19,0,9.95,6.667,9.95,10.345
			c0,4.352-2.958,7.029-7.259,9.231c5.293,8.924,8.767,12.964,11.874,14.382c1.292,0.576,2.793,0.786,4.556,0.786
			c0.207,0,0.573,0.054,0.573,0.366C-18.399-100.089-20.416-99.777-23.686-99.777"/>
	</g>
	<g>
		<defs>
			<path id="SVGID_22_" d="M-42.812-133.05c-1.4,0-2.697,0.054-3.574,0.156c-0.417,0.054-0.573,0.371-0.573,0.894v13.174
				c0,0.363,0.054,0.734,0.573,0.942c1.761,0.737,2.852,0.947,4.611,0.947c2.904,0,3.216-0.315,4.25-1.473
				c1.087-1.206,1.763-3.2,1.763-5.35C-35.763-129.113-37.885-133.05-42.812-133.05 M-23.686-99.777
				c-8.553,0-12.287-4.04-17.57-14.536c-1.66,0.159-3.525,0.057-5.13-0.207c-0.363-0.054-0.626-0.054-0.626-0.054l0.054,6.613
				c0.054,5.457,2.697,6.351,5.184,7.083v0.425h-9.227h-8.811v-0.425c2.484-0.732,5.233-1.626,5.233-7.083v-20.312
				c0-5.354-2.643-6.247-5.233-6.927v-0.526h8.286c2.544,0,9.338-0.211,13.428-0.211c8.19,0,9.95,6.667,9.95,10.345
				c0,4.352-2.958,7.029-7.259,9.231c5.293,8.924,8.767,12.964,11.874,14.382c1.292,0.576,2.793,0.786,4.556,0.786
				c0.207,0,0.573,0.054,0.573,0.366C-18.399-100.089-20.416-99.777-23.686-99.777"/>
		</defs>
		<clipPath id="SVGID_23_">
			<use xlink:href="#SVGID_22_"  overflow="visible"/>
		</clipPath>
	</g>
</g>
<g>
	<g>
		<path id="SVGID_13_" d="M18.228-108.276l-2.75,7.824H-5.408h-8.813v-0.474c2.489-0.737,5.236-1.577,5.236-7.031v-20.312
			c0-5.35-2.644-6.247-5.236-6.927v-0.526h8.29h9.746v0.526c-2.539,0.68-5.182,1.574-5.182,6.927l-0.054,24.3h8.086
			c3.631,0,8.606-2.1,11.198-4.303h0.366V-108.276z"/>
	</g>
	<g>
		<defs>
			<path id="SVGID_24_" d="M18.228-108.276l-2.75,7.824H-5.408h-8.813v-0.474c2.489-0.737,5.236-1.577,5.236-7.031v-20.312
				c0-5.35-2.644-6.247-5.236-6.927v-0.526h8.29h9.746v0.526c-2.539,0.68-5.182,1.574-5.182,6.927l-0.054,24.3h8.086
				c3.631,0,8.606-2.1,11.198-4.303h0.366V-108.276z"/>
		</defs>
		<clipPath id="SVGID_26_">
			<use xlink:href="#SVGID_24_"  overflow="visible"/>
		</clipPath>
	</g>
</g>
<g>
	<g>
		<path id="SVGID_15_" d="M40.318-100.458h-9.227h-8.813v-0.472c2.487-0.734,5.231-1.577,5.231-7.035v-20.309
			c0-5.35-2.637-6.247-5.231-6.927v-0.526h8.291h9.746v0.526c-2.541,0.68-5.184,1.574-5.184,6.927v20.309
			c0,5.46,2.697,6.3,5.184,7.035v0.472H40.318z"/>
	</g>
	<g>
		<defs>
			<path id="SVGID_27_" d="M40.318-100.458h-9.227h-8.813v-0.472c2.487-0.734,5.231-1.577,5.231-7.035v-20.309
				c0-5.35-2.637-6.247-5.231-6.927v-0.526h8.291h9.746v0.526c-2.541,0.68-5.184,1.574-5.184,6.927v20.309
				c0,5.46,2.697,6.3,5.184,7.035v0.472H40.318z"/>
		</defs>
		<clipPath id="SVGID_28_">
			<use xlink:href="#SVGID_27_"  overflow="visible"/>
		</clipPath>
	</g>
</g>
<g>
	<g>
		<path id="SVGID_17_" d="M89.039-135.146c-2.536,0.68-5.228,1.577-5.228,6.927v9.339c0,3.728-0.156,19.313-0.156,19.313H82.72
			L56.698-123.76v4.777v11.126c0,5.35,2.695,6.244,5.234,6.927v0.472h-8.294h-6.32v-0.472c2.537-0.687,5.229-1.577,5.229-6.927
			v-11.126c0-9.29,0.055-8.66,0.055-8.66s1.087,0.999-7.462-7.293v-0.737h10.679l23.893,22.147v-4.777l-0.052-9.915
			c-0.053-5.35-2.695-6.247-5.234-6.927v-0.527h8.294h6.318V-135.146z"/>
	</g>
	<g>
		<defs>
			<path id="SVGID_29_" d="M89.039-135.146c-2.536,0.68-5.228,1.577-5.228,6.927v9.339c0,3.728-0.156,19.313-0.156,19.313H82.72
				L56.698-123.76v4.777v11.126c0,5.35,2.695,6.244,5.234,6.927v0.472h-8.294h-6.32v-0.472c2.537-0.687,5.229-1.577,5.229-6.927
				v-11.126c0-9.29,0.055-8.66,0.055-8.66s1.087,0.999-7.462-7.293v-0.737h10.679l23.893,22.147v-4.777l-0.052-9.915
				c-0.053-5.35-2.695-6.247-5.234-6.927v-0.527h8.294h6.318V-135.146z"/>
		</defs>
		<clipPath id="SVGID_30_">
			<use xlink:href="#SVGID_29_"  overflow="visible"/>
		</clipPath>
	</g>
</g>
<g>
	<g>
		<path id="SVGID_19_" d="M128.235-117.831c-2.533,0.684-5.234,1.628-5.234,7.241v4.25l0.11,6.979h-0.886l-3.32-2.993
			c-0.357,0.321-4.088,3.097-9.017,3.097c-14.095,0-19.798-8.081-19.798-19.153c0-9.341,6.738-18.474,19.651-18.474
			c5.388,0,8.086,0.996,10.462,1.94c0.062,0.054,3.22-2.204,3.22-2.204h0.886l-2.487,11.543h-0.886c0-0.573-0.67-8.445-10.208-8.445
			c-8.242,0-12.337,5.036-12.337,14.222c0,10.021,5.078,17.684,11.764,17.684c3.581,0,5.234-1.836,5.234-1.836v-6.613
			c0-5.617-2.698-6.561-5.234-7.241v-0.467h8.34h9.746v0.47H128.235z"/>
	</g>
	<g>
		<defs>
			<path id="SVGID_31_" d="M128.235-117.831c-2.533,0.684-5.234,1.628-5.234,7.241v4.25l0.11,6.979h-0.886l-3.32-2.993
				c-0.357,0.321-4.088,3.097-9.017,3.097c-14.095,0-19.798-8.081-19.798-19.153c0-9.341,6.738-18.474,19.651-18.474
				c5.388,0,8.086,0.996,10.462,1.94c0.062,0.054,3.22-2.204,3.22-2.204h0.886l-2.487,11.543h-0.886
				c0-0.573-0.67-8.445-10.208-8.445c-8.242,0-12.337,5.036-12.337,14.222c0,10.021,5.078,17.684,11.764,17.684
				c3.581,0,5.234-1.836,5.234-1.836v-6.613c0-5.617-2.698-6.561-5.234-7.241v-0.467h8.34h9.746v0.47H128.235z"/>
		</defs>
		<clipPath id="SVGID_32_">
			<use xlink:href="#SVGID_31_"  overflow="visible"/>
		</clipPath>
	</g>
</g>
<g>
	<g>
		<path id="SVGID_21_" d="M168.833-137.144l-2.493,11.543h-0.879c0,0-0.053-0.732-0.156-1.313c-0.312-1.68-0.932-5.246-4.714-5.246
			h-7.468v13.12v11.076c0,5.458,2.748,6.351,5.234,7.083v0.42h-9.277h-8.756v-0.42c2.486-0.732,5.234-1.626,5.234-7.083v-11.022
			v-13.171h-6.016c-3.786,0-6.322,2.046-8.402,6.556h-0.882l2.487-11.543h0.889c0.205,0.527,1.188,1.577,3.365,1.577h11.094h16.53
			c1.25,0,2.849-0.84,3.32-1.577H168.833z"/>
	</g>
</g>
<g>
	<path d="M190.992-136.826c-17.363,0-21.927,12.91-21.927,19.733c0,9.129,5.696,17.946,20.11,17.946
		c12.282,0,20.524-9.082,20.524-19.784C209.7-131.107,200.37-136.826,190.992-136.826z M190.575-102.137
		c-6.48,0-13.219-5.983-13.219-18.053c0-8.292,3.99-13.7,11.348-13.7c8.502,0,12.705,8.977,12.705,17.949
		C201.409-106.807,197.056-102.137,190.575-102.137z"/>
</g>
<g>
	<g>
		<path id="SVGID_25_" d="M254.94-135.146c-2.532,0.68-5.228,1.577-5.228,6.927v9.339c0,3.728-0.163,19.313-0.163,19.313h-0.928
			l-26.019-24.193v4.777v11.126c0,5.35,2.692,6.244,5.228,6.927v0.472h-8.287h-6.325v-0.472c2.539-0.687,5.237-1.577,5.237-6.927
			v-11.126c0-9.29,0.056-8.66,0.056-8.66s1.077,0.999-7.468-7.293v-0.737h10.678l23.893,22.147v-4.777l-0.055-9.915
			c-0.053-5.35-2.695-6.247-5.225-6.927v-0.527h8.287h6.318V-135.146z"/>
	</g>
</g>
</svg>
