<?xml version="1.0" encoding="utf-8"?>
<!-- Generator: Adobe Illustrator 16.0.0, SVG Export Plug-In . SVG Version: 6.00 Build 0)  -->
<!DOCTYPE svg PUBLIC "-//W3C//DTD SVG 1.1//EN" "http://www.w3.org/Graphics/SVG/1.1/DTD/svg11.dtd">
<svg version="1.1" id="Layer_1" xmlns="http://www.w3.org/2000/svg" xmlns:xlink="http://www.w3.org/1999/xlink" x="0px" y="0px"
	 width="512px" height="512px" viewBox="0 0 512 512" enable-background="new 0 0 512 512" xml:space="preserve">
<g>
	<path stroke="#000000" stroke-miterlimit="10" d="M18.784,420.475h474.431c0.24,0,0.48-0.014,0.719-0.037
		c4.566-0.377,7.928-4.303,7.928-9.437V100.225c0-5.203-3.475-8.699-8.646-8.699H18.784c-5.171,0-8.645,3.496-8.645,8.699v311.548
		C10.139,416.978,13.613,420.475,18.784,420.475z M484.568,394.096L306.123,255.961l178.445-138.068V394.096z M220.042,267.28
		l30.712,23.403c1.298,1.281,3.057,1.984,4.963,1.984c1.844,0,3.75-0.668,5.383-1.879l0.023-0.012l0.061-0.047
		c0.004-0.002,0.008-0.004,0.01-0.006l30.764-23.443l175.377,135.773H43.902L220.042,267.28z M256,272.476L43.901,108.942h424.197
		L256,272.476z M205.876,255.962L27.431,394.098v-276.2L205.876,255.962z"/>
</g>
</svg>
