<?xml version="1.0" encoding="utf-8"?>
<!-- Generator: Adobe Illustrator 16.0.0, SVG Export Plug-In . SVG Version: 6.00 Build 0)  -->
<!DOCTYPE svg PUBLIC "-//W3C//DTD SVG 1.1//EN" "http://www.w3.org/Graphics/SVG/1.1/DTD/svg11.dtd">
<svg version="1.1" id="Layer_1" xmlns="http://www.w3.org/2000/svg" xmlns:xlink="http://www.w3.org/1999/xlink" x="0px" y="0px"
	 width="512px" height="512px" viewBox="0 0 512 512" enable-background="new 0 0 512 512" xml:space="preserve">
<g>
	<g>
		<path d="M426.976,458.025H319.59V289.98h51.275l5.03-39.019H319.59v-46.708c0-8.199,0.864-18.637,7.606-26.65
			c6.374-7.576,16.443-11.258,30.784-11.258h20.924v-33.642c-8.339-0.674-21.095-1.377-35.154-1.377
			c-19.635,0-35.94,5.866-47.154,16.962c-11.674,11.551-17.844,28.909-17.844,50.198v52.473h-49.925v39.02h49.925v168.044H85.019
			c-16.98,0-30.817-13.832-30.844-30.834V84.824c0-17.011,13.819-30.85,30.806-30.85h341.996c16.979,0,30.818,13.832,30.85,30.833
			v342.365c0,8.119-3.29,16.069-9.027,21.812C442.973,454.815,435.223,458.025,426.976,458.025z M338.82,438.795h88.155
			c3.107,0,6.026-1.208,8.219-3.402c2.161-2.163,3.401-5.159,3.401-8.22V84.825c-0.012-6.399-5.225-11.62-11.619-11.62H84.981
			c-6.383,0-11.576,5.212-11.576,11.619v342.349c0.011,6.399,5.22,11.619,11.614,11.619h174.502V309.209h-49.925v-77.48h49.925
			v-33.243c0-26.539,8.143-48.625,23.547-63.868c14.892-14.735,35.874-22.523,60.682-22.523c21.414,0,40.272,1.602,46.05,2.378
			l8.335,1.12v69.982H357.98c-17.348,0-19.16,5.691-19.16,18.678v27.478h58.944l-9.989,77.48H338.82V438.795z"/>
	</g>
</g>
</svg>
