<?xml version="1.0" encoding="utf-8"?>
<!-- Generator: Adobe Illustrator 16.0.0, SVG Export Plug-In . SVG Version: 6.00 Build 0)  -->
<!DOCTYPE svg PUBLIC "-//W3C//DTD SVG 1.1//EN" "http://www.w3.org/Graphics/SVG/1.1/DTD/svg11.dtd">
<svg version="1.1" id="Layer_1" xmlns="http://www.w3.org/2000/svg" xmlns:xlink="http://www.w3.org/1999/xlink" x="0px" y="0px"
	 width="512px" height="512px" viewBox="0 0 512 512" enable-background="new 0 0 512 512" xml:space="preserve">
<g>
	<path d="M180.473,427.787h-8.162v-0.184c-44.158-1.392-86.951-14.527-124.251-38.209l-30.296-19.236l35.636,4.241
		c6.247,0.743,12.624,1.128,18.954,1.144c0.043,0,0.088,0,0.131,0c28.664,0,56.953-7.771,81.498-22.169
		c-29.677-7.833-54.02-30.102-63.731-59.97l-4.267-13.122l13.555,2.581c0.116,0.021,0.231,0.043,0.347,0.064
		c-23.968-16.604-39.319-44.138-39.331-74.467v-14.879l12.103,6.671c2.324,1.281,4.716,2.437,7.164,3.464
		c-21.637-28.456-25.1-68.052-6.083-100.4l5.922-10.074l7.42,9.027c38.749,47.146,95.17,76.892,156.055,82.617
		c-4.001-36.438,14.697-72.336,47.962-89.938c35.094-18.582,78.344-12.484,106.818,14.575c16.286-3.628,31.833-9.742,46.273-18.204
		l18.546-10.867l-6.658,20.438c-3.41,10.466-8.672,20.138-15.461,28.613c5.316-1.69,10.548-3.662,15.676-5.908l25.85-11.323
		l-15.815,23.374c-10.971,16.213-24.442,30.384-40.085,42.175c0.06,2.268,0.06,4.506,0.06,6.699
		c0,59.04-23.068,118.79-63.291,163.927c-21.829,24.498-47.8,43.748-77.189,57.216c-29.718,13.619-62.37,21.01-97.173,22.006v0.046
		l-1.883,0.002C184.676,427.764,182.577,427.787,180.473,427.787z M86.049,391.34c29.449,13.191,61.453,20.062,94.104,20.062
		c0.104,0,0.206,0,0.311,0l6.173-0.008c82.8-1.855,134.876-40.913,164.187-73.807c37.593-42.188,59.153-97.979,59.153-153.067
		c0-3.522,0-6.85-0.234-10.099l-0.33-4.563l3.722-2.663c8.051-5.76,15.501-12.192,22.298-19.244
		c-7.519,1.904-15.168,3.311-22.905,4.211L374.36,156.6l33.066-19.569c8.941-5.292,16.599-12.296,22.576-20.521
		c-10.679,4.374-21.771,7.692-33.173,9.916l-4.394,0.856l-3.084-3.243c-23.327-24.532-60.593-30.561-90.618-14.663
		c-29.98,15.864-45.549,49.8-37.861,82.527l2.479,10.554l-10.828-0.536c-65.122-3.22-126.331-32.125-169.835-79.798
		c-12.509,31.959-1.232,69.213,28.443,88.824l23.955,15.831l-28.701-0.863c-9.719-0.292-19.378-2.149-28.51-5.444
		c5.015,30.066,28.484,54.8,59.458,60.983l34.098,6.807l-33.565,9.076c-8.73,2.361-17.85,3.414-26.922,3.14
		c12.675,23.638,37.503,39.104,65.26,39.622l23.088,0.431l-18.23,14.173C153.803,375.896,120.496,388.667,86.049,391.34z"/>
</g>
</svg>
