<?xml version="1.0" encoding="utf-8"?>
<!-- Generator: Adobe Illustrator 16.0.0, SVG Export Plug-In . SVG Version: 6.00 Build 0)  -->
<!DOCTYPE svg PUBLIC "-//W3C//DTD SVG 1.1//EN" "http://www.w3.org/Graphics/SVG/1.1/DTD/svg11.dtd">
<svg version="1.1" id="Layer_1" xmlns="http://www.w3.org/2000/svg" xmlns:xlink="http://www.w3.org/1999/xlink" x="0px" y="0px"
	 width="2445.716px" height="504.854px" viewBox="-1163.384 -237.854 2445.716 504.854"
	 enable-background="new -1163.384 -237.854 2445.716 504.854" xml:space="preserve">
<title>Group 14</title>
<desc>Created with Sketch.</desc>
<g id="Page-1">
	<g id="T1---HOMEPAGE" transform="translate(-28.000000, -2016.000000)">
		<g id="Group-9-Copy-17" transform="translate(28.000000, 2016.000000)">
			<g id="Group-14">
				<path id="Fill-245" d="M-1036.113,117.898h-70.355h-56.917v-2.935c15.337-4.543,32.292-9.749,32.292-43.58V-54.46
					c0-33.177-16.312-38.705-32.292-42.927v-3.256h126.95c34.866,0,48.293,24.715,48.293,45.52c0,21.8-10.231,40.333-42.535,52.686
					c35.811,6.834,61.088,27.328,61.088,60.495C-969.587,81.797-983.347,117.898-1036.113,117.898 M-1068.416-83.416h-12.785
					c-2.563,0-3.839,0.985-3.839,4.231v65.379c0.322,2.271,0.955,2.915,4.151,2.915c7.036,0.322,11.84,0.653,18.865,0.653
					c14.714,0,18.554-2.603,22.714-7.478c7.036-8.784,7.357-16.583,7.357-26.675C-1031.952-60.641-1038.344-83.416-1068.416-83.416
					 M-1067.451,7.984h-13.75c-3.196,0.312-3.839,0.965-3.839,3.247v35.77c0,35.117,0.322,41.63,3.839,48.143
					c3.518,6.493,14.704,8.442,26.865,8.442c19.187,0,36.775-9.749,36.775-40.645C-1017.56,27.814-1034.836,7.984-1067.451,7.984"/>
				<path id="Fill-247" d="M-696.491-97.396c-15.669,4.231-31.981,9.759-31.981,42.926V5.703c0,37.72-4.472,70.244-24.302,91.712
					c-17.588,19.177-42.856,27.961-69.39,27.961c-51.49,0-91.471-24.725-91.471-82.616v-97.23c0-33.167-16.302-38.695-32.292-42.926
					v-3.247h51.167h60.113v3.247c-15.659,4.231-31.971,9.759-31.971,42.926v95.944c0,51.379,24.624,64.726,53.409,64.726
					c17.579,0,34.856-8.784,45.399-22.453c11.207-14.613,13.438-31.539,13.438-73.812V-54.47c0-33.167-16.312-38.695-32.303-42.926
					v-3.247h51.168h39.017V-97.396z"/>
				<path id="Fill-249" d="M-453.336,122.12c-52.776,0-75.792-25.047-108.416-90.095c-10.231,1.006-21.75,0.342-31.649-1.286
					c-2.251-0.321-3.85-0.321-3.85-0.321l0.322,40.966c0.321,33.831,16.634,39.358,31.981,43.901v2.613h-56.927h-54.354v-2.613
					c15.337-4.543,32.292-10.07,32.292-43.901V-54.46c0-33.177-16.312-38.705-32.292-42.927v-3.256h51.158
					c15.679,0,57.56-1.307,82.828-1.307c50.524,0,61.399,41.309,61.399,64.073c0,26.986-18.232,43.58-44.766,57.239
					c32.614,55.278,54.042,80.324,73.229,89.108c8,3.559,17.267,4.885,28.142,4.885c1.277,0,3.518,0.321,3.518,2.252
					C-420.721,120.17-433.194,122.12-453.336,122.12 M-571.34-84.049c-8.634,0-16.634,0.312-22.061,0.965
					c-2.563,0.332-3.528,2.271-3.528,5.528V4.075c0,2.282,0.321,4.553,3.528,5.86c10.864,4.543,17.578,5.85,28.453,5.85
					c17.9,0,19.83-1.95,26.222-9.106c6.714-7.478,10.875-19.84,10.875-33.167C-527.851-59.676-540.957-84.049-571.34-84.049"/>
				<path id="Fill-251" d="M-194.752,69.454l-16.945,48.444h-128.879h-54.364v-2.935c15.357-4.543,32.303-9.749,32.303-43.58V-54.46
					c0-33.177-16.312-38.705-32.303-42.927v-3.256h51.168h60.123v3.256c-15.669,4.222-31.981,9.75-31.981,42.927l-0.321,150.568
					h49.881c22.393,0,53.098-13.005,69.088-26.654H-194.752z"/>
				<path id="Fill-253" d="M-58.436,117.898h-56.927h-54.354v-2.935c15.347-4.543,32.293-9.749,32.293-43.58V-54.46
					c0-33.177-16.302-38.705-32.293-42.927v-3.256h51.168h60.113v3.256c-15.669,4.222-31.981,9.75-31.981,42.927V71.384
					c0,33.831,16.634,39.037,31.981,43.58V117.898z"/>
				<path id="Fill-255" d="M242.17-97.065c-15.68,4.231-32.283,9.759-32.283,42.926V3.753c0,23.086-0.984,119.673-0.984,119.673
					h-5.749L42.614-26.489V3.1v68.927c0,33.188,16.634,38.715,32.313,42.937v2.935H23.749h-39.017v-2.935
					c15.669-4.222,32.303-9.749,32.303-42.937V3.1c0-57.57,0.321-53.661,0.321-53.661s6.714,6.181-46.062-45.208v-4.553h65.882
					L184.6,36.931V7.321l-0.322-61.46c-0.321-33.167-16.623-38.695-32.282-42.926v-3.256h51.158h39.017V-97.065z"/>
				<path id="Fill-257" d="M500.592,10.256c-15.679,4.222-32.282,10.081-32.282,44.887v26.332l0.644,43.259h-5.468l-20.464-18.534
					c-2.23,1.93-25.247,19.177-55.64,19.177c-86.979,0-122.156-50.092-122.156-118.698c0-57.892,41.569-114.477,121.191-114.477
					c33.268,0,49.892,6.181,64.605,12.03c0.321,0.332,19.819-13.659,19.819-13.659h5.468l-15.357,71.551h-5.468
					c0-3.578-4.141-52.364-62.977-52.364c-50.856,0-76.124,31.228-76.124,88.134c0,62.113,31.358,109.593,72.605,109.593
					c22.071,0,32.283-11.378,32.283-11.378V55.143c0-34.806-16.604-40.665-32.283-44.887V7.331h51.5h60.103V10.256z"/>
				<path id="Fill-259" d="M751.034-109.427l-15.337,71.551h-5.447c0,0-0.322-4.553-0.965-8.131
					c-1.91-10.402-5.749-32.524-29.087-32.524h-46.072v81.31v68.605c0,33.831,16.966,39.358,32.323,43.901v2.613H629.2h-54.053
					v-2.613c15.338-4.543,32.304-10.07,32.304-43.901V3.1v-81.632h-37.107c-23.338,0-38.996,12.684-51.781,40.655h-5.468
					l15.357-71.551h5.428c1.286,3.256,7.357,9.759,20.805,9.759h68.445h101.994c7.679,0,17.608-5.196,20.483-9.759H751.034z"/>
				<path id="Fill-261" d="M876.547,126.02c-88.908,0-124.085-54.636-124.085-111.221c0-42.273,28.142-122.276,135.281-122.276
					c57.872,0,115.442,35.449,115.442,110.899C1003.186,69.776,952.349,126.02,876.547,126.02 M873.673-89.255
					c-45.409,0-70.033,33.489-70.033,84.877c0,74.797,41.569,111.864,81.53,111.864c39.982,0,66.857-28.946,66.857-85.531
					C952.027-33.646,926.097-89.255,873.673-89.255"/>
				<path id="Fill-263" d="M1282.332-97.065c-15.679,4.231-32.282,9.759-32.282,42.926V3.753c0,23.086-0.965,119.673-0.965,119.673
					h-5.77L1082.767-26.489V3.1v68.927c0,33.188,16.644,38.715,32.322,42.937v2.935h-51.178h-39.017v-2.935
					c15.659-4.222,32.303-9.749,32.303-42.937V3.1c0-57.57,0.321-53.661,0.321-53.661s6.714,6.181-46.052-45.208v-4.553h65.872
					l147.423,137.252V7.321l-0.321-61.46c-0.321-33.167-16.624-38.695-32.283-42.926v-3.256h51.158h39.017V-97.065z"/>
				<path id="Fill-265" d="M-244.714,261.04l14.121-53.128h0.432v53.128h10.322v-69.591h-14.774l-12.604,48.585h-0.432
					l-12.704-48.585h-15.428v69.591h9.89v-53.128h0.432l14.122,53.128H-244.714z M-154.881,191.449l-19.991,69.591h10.312
					l5.226-18.896h21.499l5.206,18.896h11.197l-20.102-69.591H-154.881z M-148.69,204.254h0.432l7.92,28.825h-16.403
					L-148.69,204.254z M-58.104,262.146c7.708,0,12.804-3.316,14.875-9.287l1.085,8.182h8.252v-34.595h-21.066v8.523h10.644v1.447
					c0,10.252-4.131,16.442-12.271,16.442c-8.905,0-13.368-8.161-13.368-22.634v-7.96c0-14.473,4.131-22.634,13.046-22.634
					c8.684,0,12.051,7.618,12.051,18.875v0.884h10.533v-0.884c0-16.785-6.955-28.162-22.694-28.162
					c-15.649,0-24.343,12.041-24.343,33.689v4.644C-81.361,250.205-72.667,262.146-58.104,262.146z M30.312,191.449L10.311,261.04
					h10.322l5.226-18.896h21.499l5.206,18.896h11.197l-20.092-69.591H30.312z M36.503,204.254h0.433l7.92,28.825H28.453
					L36.503,204.254z M118.707,251.652l28.785-51.7v-8.503h-41.167v9.388h28.362l-28.785,52.021v8.182h42.032v-9.388H118.707z
					 M194.751,261.04h11.075v-69.591h-11.075V261.04z M266.01,191.449h-10.653v69.591h10.211v-49.711h0.442l25.408,49.711h8.925
					v-69.591h-10.131v47.62h-0.422L266.01,191.449z M387.984,251.652h-27.257v-21.749h21.065v-9.187h-21.065v-19.88h26.814v-9.388
					h-37.67v69.591h38.112V251.652z"/>
				<path id="Fill-268" d="M-16.956-168.022v-60.415H1.878v-9.417h-48.655v9.417h18.493v60.415H-16.956z M44.031-168.022v-31.258
					h26.021v31.258h11.427v-69.832H70.053v29.368H44.031v-29.368H32.593v69.832H44.031z M155.131-177.44h-28.142v-21.84h21.749
					v-9.206h-21.749v-19.951h27.699v-9.417h-38.896v69.832h39.338V-177.44z"/>
			</g>
		</g>
	</g>
</g>
</svg>
