<?xml version="1.0" encoding="utf-8"?>
<!-- Generator: Adobe Illustrator 16.0.0, SVG Export Plug-In . SVG Version: 6.00 Build 0)  -->
<!DOCTYPE svg PUBLIC "-//W3C//DTD SVG 1.1//EN" "http://www.w3.org/Graphics/SVG/1.1/DTD/svg11.dtd">
<svg version="1.1" id="Layer_1" xmlns="http://www.w3.org/2000/svg" xmlns:xlink="http://www.w3.org/1999/xlink" x="0px" y="0px"
	 width="2445.715px" height="243.555px" viewBox="0 0 2445.715 243.555" enable-background="new 0 0 2445.715 243.555"
	 xml:space="preserve">
<title>Group 14</title>
<desc>Created with Sketch.</desc>
<g id="Page-1">
	<g id="T1---HOMEPAGE" transform="translate(-28.000000, -2016.000000)">
		<g id="Group-9-Copy-17" transform="translate(28.000000, 2016.000000)">
			<g id="Group-14">
				<path id="Fill-245" d="M127.271,228.325H56.916H-0.001v-2.935c15.337-4.543,32.292-9.749,32.292-43.58V55.968
					c0-33.177-16.312-38.705-32.292-42.927V9.785h126.95c34.866,0,48.293,24.715,48.293,45.52c0,21.8-10.231,40.333-42.535,52.686
					c35.811,6.834,61.088,27.329,61.088,60.495C193.797,192.225,180.037,228.325,127.271,228.325 M94.968,27.012H82.183
					c-2.563,0-3.839,0.985-3.839,4.231v65.379c0.322,2.271,0.955,2.915,4.151,2.915c7.036,0.322,11.84,0.653,18.865,0.653
					c14.714,0,18.554-2.603,22.714-7.478c7.036-8.784,7.357-16.583,7.357-26.675C131.432,49.787,125.04,27.012,94.968,27.012
					 M95.933,118.412h-13.75c-3.196,0.312-3.839,0.965-3.839,3.247v35.77c0,35.117,0.322,41.63,3.839,48.143
					c3.518,6.493,14.704,8.442,26.865,8.442c19.187,0,36.775-9.749,36.775-40.646C145.824,138.241,128.548,118.412,95.933,118.412"
					/>
				<path id="Fill-247" d="M466.893,13.032c-15.669,4.231-31.981,9.759-31.981,42.926v60.173c0,37.72-4.472,70.244-24.302,91.712
					c-17.588,19.177-42.856,27.961-69.39,27.961c-51.49,0-91.471-24.725-91.471-82.616V55.958c0-33.167-16.302-38.695-32.292-42.926
					V9.785h51.167h60.113v3.247c-15.659,4.231-31.971,9.759-31.971,42.926v95.943c0,51.379,24.624,64.727,53.409,64.727
					c17.579,0,34.856-8.784,45.399-22.453c11.207-14.613,13.438-31.539,13.438-73.812V55.958c0-33.167-16.312-38.695-32.303-42.926
					V9.785h51.168h39.017L466.893,13.032L466.893,13.032z"/>
				<path id="Fill-249" d="M710.048,232.548c-52.776,0-75.792-25.047-108.416-90.096c-10.231,1.007-21.75,0.343-31.649-1.285
					c-2.251-0.321-3.85-0.321-3.85-0.321l0.322,40.966c0.321,33.831,16.634,39.358,31.981,43.901v2.612h-56.927h-54.354v-2.612
					c15.337-4.543,32.292-10.07,32.292-43.901V55.968c0-33.177-16.312-38.705-32.292-42.927V9.785h51.158
					c15.679,0,57.56-1.307,82.828-1.307c50.524,0,61.399,41.309,61.399,64.073c0,26.986-18.232,43.58-44.766,57.239
					c32.614,55.277,54.042,80.324,73.229,89.107c8,3.559,17.267,4.885,28.142,4.885c1.277,0,3.518,0.321,3.518,2.252
					C742.663,230.598,730.19,232.548,710.048,232.548 M592.044,26.379c-8.634,0-16.634,0.312-22.061,0.965
					c-2.563,0.332-3.528,2.271-3.528,5.528v81.631c0,2.282,0.321,4.553,3.528,5.86c10.864,4.543,17.578,5.85,28.453,5.85
					c17.9,0,19.83-1.95,26.222-9.106c6.714-7.478,10.875-19.84,10.875-33.167C635.533,50.752,622.427,26.379,592.044,26.379"/>
				<path id="Fill-251" d="M968.632,179.882l-16.945,48.443H822.808h-54.364v-2.935c15.357-4.543,32.303-9.749,32.303-43.58V55.968
					c0-33.177-16.312-38.705-32.303-42.927V9.785h51.168h60.123v3.256c-15.669,4.222-31.981,9.75-31.981,42.927l-0.321,150.568
					h49.881c22.393,0,53.098-13.006,69.088-26.654H968.632z"/>
				<path id="Fill-253" d="M1104.948,228.325h-56.927h-54.354v-2.935c15.347-4.543,32.293-9.749,32.293-43.58V55.968
					c0-33.177-16.302-38.705-32.293-42.927V9.785h51.168h60.113v3.256c-15.669,4.222-31.981,9.75-31.981,42.927v125.844
					c0,33.831,16.634,39.037,31.981,43.58V228.325z"/>
				<path id="Fill-255" d="M1405.553,13.363c-15.68,4.231-32.282,9.759-32.282,42.926v57.892c0,23.086-0.984,119.673-0.984,119.673
					h-5.749l-160.54-149.915v29.589v68.926c0,33.188,16.634,38.716,32.313,42.938v2.936h-51.178h-39.017v-2.936
					c15.669-4.222,32.303-9.749,32.303-42.938v-68.926c0-57.57,0.321-53.661,0.321-53.661s6.714,6.181-46.062-45.208v-4.553h65.882
					l147.424,137.253v-29.61l-0.322-61.46c-0.321-33.167-16.623-38.695-32.282-42.926v-3.256h51.158h39.018v3.256H1405.553z"/>
				<path id="Fill-257" d="M1663.975,120.684c-15.678,4.222-32.281,10.081-32.281,44.888v26.332l0.645,43.258h-5.469l-20.463-18.533
					c-2.23,1.93-25.248,19.177-55.641,19.177c-86.979,0-122.156-50.092-122.156-118.698c0-57.892,41.568-114.477,121.191-114.477
					c33.268,0,49.891,6.181,64.605,12.03c0.32,0.332,19.818-13.659,19.818-13.659h5.467l-15.355,71.551h-5.469
					c0-3.578-4.141-52.364-62.977-52.364c-50.856,0-76.125,31.229-76.125,88.134c0,62.113,31.359,109.593,72.605,109.593
					c22.071,0,32.283-11.379,32.283-11.379v-40.965c0-34.807-16.604-40.666-32.283-44.888v-2.925h51.5h60.104V120.684
					L1663.975,120.684z"/>
				<path id="Fill-259" d="M1914.418,1.001l-15.338,71.551h-5.447c0,0-0.322-4.553-0.965-8.131
					c-1.91-10.402-5.748-32.524-29.086-32.524h-46.072v81.31v68.605c0,33.831,16.965,39.358,32.322,43.901v2.612h-57.248h-54.053
					v-2.612c15.338-4.543,32.303-10.07,32.303-43.901v-68.284V31.896h-37.107c-23.338,0-38.996,12.684-51.779,40.655h-5.469
					L1691.836,1h5.428c1.285,3.256,7.357,9.759,20.805,9.759h68.445h101.994c7.678,0,17.607-5.196,20.482-9.759L1914.418,1.001
					L1914.418,1.001z"/>
				<path id="Fill-261" d="M2039.93,236.448c-88.908,0-124.084-54.637-124.084-111.222c0-42.273,28.141-122.276,135.281-122.276
					c57.871,0,115.441,35.449,115.441,110.899C2166.569,180.204,2115.733,236.448,2039.93,236.448 M2037.057,21.173
					c-45.41,0-70.033,33.489-70.033,84.877c0,74.797,41.568,111.863,81.529,111.863c39.982,0,66.857-28.945,66.857-85.53
					C2115.411,76.782,2089.481,21.173,2037.057,21.173"/>
				<path id="Fill-263" d="M2445.716,13.363c-15.68,4.231-32.283,9.759-32.283,42.926v57.892c0,23.086-0.965,119.673-0.965,119.673
					h-5.77L2246.151,83.938v29.589v68.926c0,33.188,16.645,38.716,32.322,42.938v2.936h-51.178h-39.018v-2.936
					c15.658-4.222,32.303-9.749,32.303-42.938v-68.926c0-57.57,0.32-53.661,0.32-53.661s6.715,6.181-46.051-45.208v-4.553h65.871
					l147.423,137.253v-29.61l-0.32-61.46c-0.32-33.167-16.624-38.695-32.282-42.926v-3.256h51.157h39.018V13.363L2445.716,13.363z"
					/>
			</g>
		</g>
	</g>
</g>
</svg>
