<?xml version="1.0" encoding="UTF-8"?>
<svg width="500px" height="260px" viewBox="0 0 500 260" version="1.1" xmlns="http://www.w3.org/2000/svg" xmlns:xlink="http://www.w3.org/1999/xlink">
    <!-- Generator: Sketch 51.2 (57519) - http://www.bohemiancoding.com/sketch -->
    <title>bm-button-arrow-right</title>
    <desc>Created with Sketch.</desc>
    <defs></defs>
    <g id="button-arrow-right" stroke="none" stroke-width="1" fill="none" fill-rule="evenodd">
        <path d="M341.970944,70.3491359 C333.473239,53.1328646 329.209579,35.9673372 329.209579,18.8810041 C329.209579,16.0247473 329.262755,13.7043144 329.370836,11.9076271 C329.482389,10.0532347 329.652926,8.51765201 329.891249,7.27959794 L331.29256,0 L335.881503,5.82218353 C357.223063,32.8991117 380.91514,56.4488601 406.96094,76.47811 C433.006555,96.5072175 461.618549,113.23531 492.804101,126.664606 L500,129.763344 L492.81452,132.886166 C461.420553,146.530036 432.703962,163.419154 406.657543,183.555421 C380.609132,203.693227 357.01893,227.190382 335.883294,254.053195 L330.948772,260.324837 L329.861736,252.419058 C329.642704,250.82608 329.479306,249.128428 329.370836,247.325278 C329.262858,245.530304 329.209579,243.316084 329.209579,240.674275 C329.209579,224.012007 333.526838,206.956026 342.125897,189.528899 C349.771672,174.033726 360.88763,158.152079 375.465408,141.87114 L0,141.87114 L0,118.006513 L375.459739,118.006513 C360.699854,101.55294 349.534273,85.6723701 341.970944,70.3491359 Z" id="→-copy" fill="#000000" fill-rule="nonzero"></path>
    </g>
</svg>