<?xml version="1.0" encoding="UTF-8"?>
<svg width="500px" height="357px" viewBox="0 0 500 357" version="1.1" xmlns="http://www.w3.org/2000/svg" xmlns:xlink="http://www.w3.org/1999/xlink">
    <!-- Generator: Sketch 51.2 (57519) - http://www.bohemiancoding.com/sketch -->
    <title>bm-email</title>
    <desc>Created with Sketch.</desc>
    <defs></defs>
    <g id="email" stroke="none" stroke-width="1" fill="none" fill-rule="evenodd">
        <path d="M164.463538,179.055508 C164.463538,179.109294 164.463538,179.109294 164.463538,179.055508 C164.077991,179.432014 163.692443,179.80852 163.306896,180.131239 C163.251818,180.185026 163.196739,180.238812 163.141661,180.292599 C162.921348,180.507745 162.701035,180.722892 162.480723,180.938038 C161.379158,182.013769 160.222516,183.035714 159.120952,184.111446 C144.965852,197.504303 130.810751,210.843373 116.600573,224.236231 C99.5263274,240.318417 82.452082,256.454389 65.3778365,272.536575 C62.6790042,275.11833 59.9250936,277.646299 57.2262613,280.228055 C49.0746861,287.919535 40.9231108,295.664802 32.7715356,303.356282 C29.1363737,306.798623 25.5012117,310.240964 21.8660498,313.629518 C21.8660498,313.629518 21.921128,313.629518 21.921128,313.683305 C21.921128,313.683305 21.8660498,313.683305 21.8660498,313.683305 C21.8660498,313.683305 21.8660498,313.683305 21.8109716,313.683305 L21.7558934,313.683305 L21.6457369,313.737091 C21.6457369,313.737091 21.6457369,313.737091 21.5906587,313.737091 L21.5355805,313.790878 L21.4805023,313.898451 C21.4805023,313.898451 21.4254241,313.898451 21.4254241,313.952238 C21.4254241,313.952238 21.3703459,313.952238 21.3703459,314.006024 C21.3152677,314.059811 21.2601895,314.113597 21.150033,314.167384 C21.150033,314.22117 21.0949548,314.22117 21.0398766,314.22117 C19.1672174,315.996127 17.2945583,317.771084 15.3668209,319.492255 C14.7058824,320.083907 14.0449438,320.729346 13.4390835,321.320998 C13.053536,321.697504 12.6129103,322.07401 12.2273629,322.450516 C12.00705,322.611876 11.8418154,322.827022 11.6765807,322.988382 C11.6765807,322.988382 11.6215025,323.042169 11.6215025,323.042169 C11.4011897,323.257315 11.2359551,323.472461 11.0156422,323.687608 C9.91407799,324.709552 8.81251377,325.731497 7.65587134,326.807229 C5.72813395,328.582186 3.85547477,330.357143 2.09297202,332.1321 C2.03789381,332.185886 1.9828156,332.239673 1.92773739,332.29346 C1.26679885,332.992685 0.605860322,333.638124 0,334.337349 L0,22.6979346 C0.4957039,23.2358003 0.991407799,23.7198795 1.54218991,24.2577453 C1.54218991,24.2577453 1.54218991,24.2577453 1.59726812,24.3115318 C1.59726812,24.3115318 1.65234633,24.3653184 1.65234633,24.3653184 C1.65234633,24.3653184 1.65234633,24.3653184 1.65234633,24.419105 C1.76250275,24.5266781 1.81758096,24.5804647 1.92773739,24.6880379 C2.14805023,24.9031842 2.36836308,25.1183305 2.58867592,25.3334768 C2.80898876,25.5486231 3.02930161,25.7637694 3.24961445,25.9789157 C3.4699273,26.194062 3.69024014,26.4092083 3.91055299,26.6243546 C5.01211721,27.7000861 6.16875964,28.722031 7.32540207,29.7977625 C8.53712271,30.9272806 9.74884336,32.0567986 10.9054858,33.1863167 C11.1257986,33.401463 11.3461115,33.6166093 11.5664243,33.8317556 C14.3754131,36.5210843 17.1844019,39.2104131 19.9933906,41.8997418 C19.9933906,41.8997418 20.0484688,41.9535284 20.0484688,41.9535284 C20.6543291,42.5451807 21.2601895,43.136833 21.8660498,43.7284854 L21.921128,43.7822719 C22.1965191,44.0512048 22.5269883,44.3739243 22.8023794,44.6428571 C22.967614,44.8042169 23.1328486,44.9655766 23.2980833,45.1269363 C32.5512227,53.9479346 41.8594404,62.7689329 51.1125799,71.5899312 C54.031725,74.386833 56.9508702,77.1299484 59.8700154,79.9268503 C66.2040097,85.9509466 72.5930822,92.0288296 78.9270764,98.052926 C99.9118749,117.953959 120.841595,137.854991 141.826393,157.756024 C149.427187,164.802065 156.917823,171.95568 164.463538,179.055508 Z M476.646839,0 C473.066755,3.54991394 469.486671,7.09982788 465.961666,10.6497418 L465.851509,10.757315 C462.987442,13.6080034 460.123375,16.4049053 457.314386,19.2555938 C456.59837,19.9548193 455.882353,20.6540448 455.166336,21.4070568 C455.111258,21.4608434 455.111258,21.4608434 455.05618,21.5146299 C439.854594,36.6286575 424.708085,51.6888985 409.506499,66.802926 C390.724829,85.4668675 371.943159,104.130809 353.216568,122.79475 C339.171624,136.77926 325.12668,150.763769 311.081736,164.748279 C309.814937,165.447504 308.603217,166.361876 307.611809,167.437608 C306.675479,168.405766 305.904384,169.427711 305.298524,170.557229 C301.443049,174.429862 297.532496,178.248709 293.677021,182.121343 C292.575457,183.197074 291.528971,184.272806 290.427407,185.348537 C290.207094,185.563683 290.041859,185.77883 289.821547,185.940189 C289.270764,186.424269 288.719982,186.908348 288.1692,187.392427 C287.067636,188.306799 285.966072,189.22117 284.809429,190.135542 C284.093413,190.619621 283.432474,191.157487 282.716457,191.641566 C278.971139,194.169535 275.005508,196.428571 270.819564,198.311102 C267.184402,199.655766 263.384005,200.731497 259.528531,201.376936 C256.003525,201.699656 252.478519,201.699656 248.953514,201.376936 C245.042961,200.677711 241.242564,199.655766 237.497246,198.257315 C236.836308,197.988382 236.175369,197.665663 235.569509,197.342943 C234.90857,197.020224 234.30271,196.697504 233.641771,196.374785 C232.374972,195.729346 231.108174,195.03012 229.896453,194.277108 C228.684732,193.577883 227.473012,192.771084 226.316369,191.964286 C225.875744,191.695353 225.490196,191.372633 225.04957,191.103701 C223.066755,189.490103 221.139017,187.822719 219.321436,185.993976 C217.393699,184.111446 215.410883,182.282702 213.428068,180.400172 C209.847984,177.011618 206.2679,173.623064 202.687817,170.234509 C202.57766,170.07315 202.467504,169.91179 202.357347,169.696644 C202.247191,169.535284 202.137035,169.427711 202.026878,169.266351 C201.916722,169.158778 201.861644,169.051205 201.751487,168.889845 C201.641331,168.728485 201.476096,168.567126 201.36594,168.405766 C201.255783,168.244406 201.145627,168.136833 200.980392,168.02926 C200.870236,167.921687 200.760079,167.814114 200.649923,167.70654 C200.539766,167.598967 200.42961,167.491394 200.319454,167.383821 C199.438202,166.630809 198.556951,165.931583 197.620621,165.339931 C188.918264,157.056799 180.270985,148.827453 171.568627,140.598107 C150.969377,121.019793 130.370126,101.495267 109.770875,81.9169535 C90.6036572,63.6833046 71.3813615,45.4496558 52.2141441,27.2697935 C50.6719542,25.8175559 49.1297643,24.3653184 47.5875744,22.9668675 C47.3121833,22.6979346 47.0918705,22.4827883 46.8164794,22.2138554 C46.5410883,21.9449225 46.3207755,21.7297762 46.0453844,21.5146299 L45.8250716,21.4070568 C44.7235074,20.2775387 43.5668649,19.1480207 42.4102225,18.0185026 L42.3551443,17.9109294 C42.3000661,17.8571429 42.3000661,17.8033563 42.2449879,17.7495697 C41.0332672,16.5662651 39.8215466,15.436747 38.609826,14.2534423 C38.609826,14.2534423 38.5547477,14.1996558 38.5547477,14.1996558 C38.4445913,14.0920826 38.3344349,13.9845095 38.2242785,13.8769363 C38.0590438,13.7155766 37.8938092,13.5542169 37.7285746,13.3928571 C37.4531835,13.1239243 37.1227143,12.8012048 36.8473232,12.5322719 C36.5719321,12.2633391 36.2414629,11.9406196 35.9660718,11.6716867 C35.6356026,11.4027539 35.3602115,11.0800344 35.0297422,10.8111015 L34.9195858,10.7035284 C34.4238819,10.2732358 33.9832562,9.78915663 33.4875523,9.35886403 C33.4324741,9.25129088 33.3223177,9.1975043 33.2672395,9.14371773 C33.2121613,9.08993115 33.1570831,9.03614458 33.1020048,8.982358 C32.7715356,8.65963855 32.4410663,8.3369191 32.110597,8.01419966 C30.9539546,6.93846816 29.8523904,5.86273666 28.695748,4.78700516 C27.1535581,3.33476764 25.6113681,1.88253012 24.0691782,0.484079174 C23.9039436,0.322719449 23.7937872,0.215146299 23.6285525,0.0537865749 C25.9418374,0.0537865749 28.2551223,0.10757315 30.5684071,0.10757315 L476.646839,0.10757315 L476.646839,0 Z M500,22.8592943 L500,334.337349 C496.30976,330.733649 492.674598,327.076162 488.984358,323.472461 C487.276933,321.805077 485.569509,320.137694 483.862084,318.416523 C481.879269,316.480207 479.951531,314.54389 477.968716,312.607573 C466.402291,301.204819 454.835867,289.748279 443.269443,278.345525 C426.966292,262.263339 410.663142,246.181153 394.359991,230.045181 C380.149813,216.006885 365.939634,202.022375 351.729456,187.984079 C348.755232,185.025818 345.781009,182.067556 342.806786,179.109294 C344.404054,177.549484 345.946244,175.989673 347.543512,174.376076 C367.096277,154.905336 386.70412,135.434596 406.311963,115.963855 C425.974884,96.4393287 445.637806,76.8610155 465.300727,57.2827022 C469.541749,53.0873494 473.727693,48.8919966 477.968716,44.6966437 C478.023794,44.6428571 478.078872,44.5890706 478.078872,44.5890706 C481.714034,40.9853701 485.349196,37.3816695 488.984358,33.777969 C489.039436,33.7241824 489.094514,33.7241824 489.094514,33.6703959 C492.454285,30.3356282 495.814056,27.0008606 499.173827,23.6660929 C499.449218,23.3971601 499.724609,23.1282272 500,22.8592943 Z M476.646839,357.142857 L23.2980833,357.142857 C27.0434016,353.592943 30.78872,350.043029 34.5891165,346.493115 C34.6441948,346.439329 34.699273,346.439329 34.699273,346.385542 C36.5168539,344.664372 38.3344349,342.943201 40.2070941,341.222031 C42.1348315,339.393287 44.0625688,337.564544 45.9903062,335.7358 C46.0453844,335.682014 46.0453844,335.682014 46.1004627,335.628227 C58.2727473,324.1179 70.5001102,312.607573 82.6723948,301.097246 C99.7466402,285.01506 116.820886,268.879088 133.895131,252.796902 C148.71117,238.812392 163.527209,224.827883 178.343247,210.89716 C181.64794,207.777539 184.952633,204.711704 188.257325,201.645869 C196.298744,209.283563 204.174928,216.921256 213.923772,222.622633 C231.548799,232.895869 252.643754,236.553356 272.637145,231.551205 C288.224278,227.678571 303.205552,218.534854 314.441507,207.401033 C316.20401,205.679862 317.911434,203.958692 319.673937,202.183735 C321.271205,203.743546 322.868473,205.357143 324.465741,206.916954 C338.014981,220.256024 351.564221,233.648881 365.058383,246.987952 C381.361533,263.070138 397.664684,279.152324 413.967834,295.288296 C427.627231,308.73494 441.231549,322.181583 454.890945,335.628227 C455.441727,336.21988 456.047588,336.757745 456.59837,337.349398 C459.627671,340.361446 462.656973,343.373494 465.686275,346.385542 C469.266358,349.989243 472.90152,353.592943 476.646839,357.142857 Z" id="Combined-Shape" fill="#000000" fill-rule="nonzero"></path>
    </g>
</svg>