<?xml version="1.0" encoding="UTF-8"?>
<svg width="500px" height="500px" viewBox="0 0 500 500" version="1.1" xmlns="http://www.w3.org/2000/svg" xmlns:xlink="http://www.w3.org/1999/xlink">
    <!-- Generator: Sketch 51.2 (57519) - http://www.bohemiancoding.com/sketch -->
    <title>bm-facebook</title>
    <desc>Created with Sketch.</desc>
    <defs></defs>
    <g id="facebook" stroke="none" stroke-width="1" fill="none" fill-rule="evenodd">
        <path d="M472.402343,4.42188674e-07 L27.5781254,4.42188674e-07 C12.3428715,0.00808828824 -0.00269773291,12.3624008 4.42188674e-07,27.5976566 L4.42188674e-07,472.421875 C0.00808828824,487.657129 12.3624008,500.002698 27.5976566,500 L267.089844,500 L267.089844,306.640625 L202.148438,306.640625 L202.148438,230.957031 L267.089844,230.957031 L267.089844,175.258789 C267.089844,110.678711 306.52832,75.5126956 364.140625,75.5126956 C391.733398,75.5126956 415.449218,77.5683597 422.363281,78.4863284 L422.363281,145.996094 L382.631836,145.996094 C351.28418,145.996094 345.214844,160.893555 345.214844,182.753906 L345.214844,230.957031 L420.161133,230.957031 L410.395508,306.640625 L345.214844,306.640625 L345.214844,500 L472.402343,500 C479.722094,500.001295 486.742418,497.094109 491.918264,491.918264 C497.094109,486.742418 500.001295,479.722094 500,472.402343 L500,27.5781254 C499.991912,12.3428715 487.637599,-0.00269773291 472.402343,4.42188674e-07 Z" id="Shape-Copy-3" fill="#000000" fill-rule="nonzero"></path>
    </g>
</svg>