<?xml version="1.0" encoding="UTF-8"?>
<svg width="500px" height="500px" viewBox="0 0 500 500" version="1.1" xmlns="http://www.w3.org/2000/svg" xmlns:xlink="http://www.w3.org/1999/xlink">
    <!-- Generator: Sketch 51.2 (57519) - http://www.bohemiancoding.com/sketch -->
    <title>bm-favicon</title>
    <desc>Created with Sketch.</desc>
    <defs></defs>
    <g id="favicon" stroke="none" stroke-width="1" fill="none" fill-rule="evenodd">
        <path d="M308.779423,458.333333 L172.636674,458.333333 L62.5,458.333333 L62.5,452.760279 C92.1886864,444.067835 124.990509,434.158069 124.990509,369.658998 L124.990509,129.713321 C124.990509,66.4696126 93.4225513,55.913144 62.5,47.8674031 L62.5,41.6666667 L308.152999,41.6666667 C375.616932,41.6666667 401.604024,88.7808515 401.604024,128.457957 C401.604024,170.018108 381.805239,205.358501 319.295748,228.906084 C388.600987,241.935238 437.5,281.003682 437.5,344.24739 C437.5,389.516571 410.886484,458.333333 308.779423,458.333333 M246.269932,74.5153535 L221.535687,74.5153535 C216.581245,74.5153535 214.094533,76.3793786 214.094533,82.580115 L214.094533,207.222527 C214.720957,211.559238 215.954822,212.795581 222.143128,212.795581 C235.753607,213.404242 245.036067,214.031924 258.646545,214.031924 C287.120349,214.031924 294.542521,209.067531 302.591116,199.766426 C316.201595,183.028242 316.828018,168.154083 316.828018,148.924191 C316.828018,117.920509 304.451405,74.5153535 246.269932,74.5153535 M248.13022,248.763657 L221.535687,248.763657 C215.34738,249.372318 214.094533,250.608661 214.094533,254.964393 L214.094533,323.153474 C214.094533,390.125232 214.720957,402.526705 221.535687,414.928178 C228.331435,427.329651 249.990509,431.057701 273.509871,431.057701 C310.639711,431.057701 344.675399,412.455492 344.675399,353.548495 C344.675399,286.576737 311.247153,248.763657 248.13022,248.763657" id="Fill-245" fill="#000000"></path>
    </g>
</svg>