<?xml version="1.0" encoding="UTF-8"?>
<svg width="400px" height="80px" viewBox="0 0 400 80" version="1.1" xmlns="http://www.w3.org/2000/svg" xmlns:xlink="http://www.w3.org/1999/xlink">
    <!-- Generator: Sketch 51.2 (57519) - http://www.bohemiancoding.com/sketch -->
    <title>bm-header-logo</title>
    <desc>Created with Sketch.</desc>
    <defs></defs>
    <g id="header-logo" stroke="none" stroke-width="1" fill="none" fill-rule="evenodd">
        <g id="Group-2-Copy" fill="#000000">
            <path d="M20.1215529,56.1702128 L8.99840062,56.1702128 L0,56.1702128 L0,55.7148824 C2.42562885,55.0046912 5.10560752,54.1950423 5.10560752,48.9253309 L5.10560752,29.3212585 C5.10560752,24.154113 2.52643823,23.2916271 0,22.6342729 L0,22.1276596 L20.0703727,22.1276596 C25.5823196,22.1276596 27.7055203,25.9769887 27.7055203,29.2186926 C27.7055203,32.6142454 26.0879174,35.5016308 20.980759,37.4255183 C26.6431445,38.490028 30.6382979,41.682003 30.6382979,46.8491485 C30.6382979,50.5477368 28.463917,56.1702128 20.1215529,56.1702128 M15.0143944,24.8114672 L12.993554,24.8114672 C12.5887656,24.8114672 12.3855959,24.963762 12.3855959,25.4703754 L12.3855959,35.6539256 C12.436776,36.0082441 12.5375854,36.109256 13.0431833,36.109256 C14.1551883,36.1589849 14.913585,36.2102679 16.0255901,36.2102679 C18.3519605,36.2102679 18.9583677,35.8046664 19.615955,35.0447463 C20.7279601,33.677201 20.7791402,32.4619506 20.7791402,30.8908275 C20.7791402,28.3577607 19.7679446,24.8114672 15.0143944,24.8114672 M15.1663839,39.0479243 L12.993554,39.0479243 C12.4879562,39.0976532 12.3855959,39.1986651 12.3855959,39.5545377 L12.3855959,45.1257306 C12.3855959,50.5974658 12.436776,51.6106925 12.993554,52.6239192 C13.5487811,53.6371459 15.3183735,53.9417356 17.2399554,53.9417356 C20.2735424,53.9417356 23.0543304,52.4218955 23.0543304,47.6090685 C23.0543304,42.1373334 20.3231716,39.0479243 15.1663839,39.0479243" id="Fill-245"></path>
            <path d="M74.893617,22.6419942 C72.327874,23.3109448 69.6560952,24.1849982 69.6560952,29.4308961 L69.6560952,38.9460873 C69.6560952,44.9114226 68.9234848,50.0547692 65.6765425,53.450009 C62.7959055,56.4839524 58.6572993,57.8723404 54.3114414,57.8723404 C45.8783886,57.8723404 39.3314863,53.9643437 39.3314863,44.8088713 L39.3314863,29.4308961 C39.3314863,24.1849982 36.6613141,23.3109448 34.0425532,22.6419942 L34.0425532,22.1276596 L42.4225882,22.1276596 L52.2678439,22.1276596 L52.2678439,22.6419942 C49.7021009,23.3109448 47.0319287,24.1849982 47.0319287,29.4308961 L47.0319287,44.6037685 C47.0319287,52.7289939 51.0644992,54.838397 55.7782689,54.838397 C58.6572993,54.838397 61.486525,53.450009 63.213622,51.2885413 C65.0483612,48.9756131 65.4146664,46.2998107 65.4146664,39.6150379 L65.4146664,29.4308961 C65.4146664,24.1849982 62.7428876,23.3109448 60.1241267,22.6419942 L60.1241267,22.1276596 L68.5041617,22.1276596 L74.893617,22.1276596 L74.893617,22.6419942 Z" id="Fill-247"></path>
            <path d="M113.716649,57.8723404 C104.928596,57.8723404 101.094136,53.877899 95.6618487,43.5018997 C93.9578258,43.657858 92.039779,43.5544163 90.3896706,43.2950163 C90.0155372,43.2424998 89.7492325,43.2424998 89.7492325,43.2424998 L89.803147,49.7800159 C89.8570614,55.1748989 92.5723883,56.0565406 95.1292394,56.7822239 L95.1292394,57.1975822 L85.6484681,57.1975822 L76.5957447,57.1975822 L76.5957447,56.7822239 C79.150962,56.0565406 81.9741178,55.1748989 81.9741178,49.7800159 L81.9741178,29.7027756 C81.9741178,24.4113343 79.2571571,23.5296926 76.5957447,22.8549344 L76.5957447,22.3361344 L85.1158588,22.3361344 C87.7266244,22.3361344 94.7028253,22.1276596 98.9097848,22.1276596 C107.325338,22.1276596 109.135556,28.7176922 109.135556,32.349292 C109.135556,36.6540585 106.10001,39.3005749 101.68066,41.4792165 C107.112947,50.2988158 110.681103,54.2932572 113.876758,55.6936989 C115.208281,56.263424 116.752195,56.4718988 118.562412,56.4718988 C118.776436,56.4718988 119.148936,56.5244154 119.148936,56.8347405 C119.148936,57.5604239 117.072414,57.8723404 113.716649,57.8723404 M94.0640209,24.9826508 C92.6263027,24.9826508 91.2947796,25.0335759 90.3896706,25.1370176 C89.9632565,25.1895342 89.803147,25.4998593 89.803147,26.0186593 L89.803147,39.0411749 C89.803147,39.4040166 89.8570614,39.7668583 90.3896706,39.9753331 C92.1998886,40.7010165 93.3173877,40.9078999 95.1292394,40.9078999 C98.1108709,40.9078999 98.43109,40.5975748 99.4963085,39.4565332 C100.613808,38.262975 101.306526,36.2912168 101.306526,34.1650918 C101.306526,28.8720591 99.1238088,24.9826508 94.0640209,24.9826508" id="Fill-249"></path>
            <path d="M154.893617,48.6222953 L152.155132,56.1702128 L131.335993,56.1702128 L122.553191,56.1702128 L122.553191,55.7148824 C125.033358,55.0046912 127.771843,54.1950423 127.771843,48.9268849 L127.771843,29.3212585 C127.771843,24.154113 125.136369,23.2931811 122.553191,22.6342729 L122.553191,22.1276596 L130.819358,22.1276596 L140.532421,22.1276596 L140.532421,22.6342729 C137.999956,23.2931811 135.366067,24.154113 135.366067,29.3212585 L135.313769,52.776214 L143.372331,52.776214 C146.988778,52.776214 151.949112,50.7497606 154.532289,48.6222953 L154.893617,48.6222953 Z" id="Fill-251"></path>
            <path d="M178.723404,56.1702128 L169.145485,56.1702128 L160,56.1702128 L160,55.7148824 C162.583051,55.0046912 165.433484,54.1950423 165.433484,48.9253309 L165.433484,29.3212585 C165.433484,24.154113 162.690334,23.2916271 160,22.6342729 L160,22.1276596 L168.609069,22.1276596 L178.723404,22.1276596 L178.723404,22.6342729 C176.087537,23.2916271 173.342736,24.154113 173.342736,29.3212585 L173.342736,48.9253309 C173.342736,54.1950423 176.140354,55.0046912 178.723404,55.7148824 L178.723404,56.1702128 Z" id="Fill-253"></path>
            <path d="M228.085106,22.6472229 C225.523901,23.3229739 222.808831,24.2059128 222.808831,29.5051399 L222.808831,38.7536856 C222.808831,42.4416288 222.650158,57.8723404 222.650158,57.8723404 L221.710943,57.8723404 L195.481829,33.921428 L195.481829,38.6484979 L195.481829,49.6629213 C195.481829,54.9621484 198.198501,55.846681 200.759707,56.5208383 L200.759707,56.9894015 L192.399728,56.9894015 L186.025564,56.9894015 L186.025564,56.5208383 C188.585166,55.846681 191.301839,54.9621484 191.301839,49.6629213 L191.301839,38.6484979 C191.301839,29.452546 191.35473,30.077297 191.35473,30.077297 C191.35473,30.077297 192.451016,31.0638298 183.829787,22.8544107 L183.829787,22.1276596 L194.593902,22.1276596 L218.68013,44.0529126 L218.68013,39.3242489 L218.628842,29.5051399 C218.575951,24.2059128 215.910566,23.3229739 213.350964,22.6472229 L213.350964,22.1276596 L221.710943,22.1276596 L228.085106,22.1276596 L228.085106,22.6472229 Z" id="Fill-255"></path>
            <path d="M270.638298,39.5116942 C268.030871,40.1862968 265.266802,41.1202395 265.266802,46.6698005 L265.266802,50.8701564 L265.372861,57.7689226 L264.467278,57.7689226 L261.06359,54.8127631 C260.691567,55.1230166 256.86201,57.8723404 251.808692,57.8723404 C237.340572,57.8723404 231.489362,49.8853002 231.489362,38.9421005 C231.489362,29.7092729 238.404428,20.6848721 251.648788,20.6848721 C257.180188,20.6848721 259.94752,21.6697282 262.393411,22.603671 C262.447256,22.6561754 265.691039,20.4255319 265.691039,20.4255319 L266.596623,20.4255319 L264.043041,31.8364985 L263.137458,31.8364985 C263.137458,31.2653138 262.447256,23.4851093 252.66043,23.4851093 C244.201793,23.4851093 240.000213,28.4650766 240.000213,37.5403908 C240.000213,47.447821 245.213435,55.0195988 252.074657,55.0195988 C255.744308,55.0195988 257.446152,53.2042177 257.446152,53.2042177 L257.446152,46.6698005 C257.446152,41.1202395 254.682084,40.1862968 252.074657,39.5116942 L252.074657,39.0455183 L260.639353,39.0455183 L270.638298,39.0455183 L270.638298,39.5116942 Z" id="Fill-257"></path>
            <path d="M313.191489,20.4255319 L310.665387,31.6758435 L309.771163,31.6758435 C309.771163,31.6758435 309.717897,30.9605421 309.612979,30.397399 C309.296611,28.7613038 308.665489,25.283621 304.825491,25.283621 L297.247184,25.283621 L297.247184,38.0680661 L297.247184,48.8571965 C297.247184,54.1748982 300.036388,55.0454953 302.56249,55.7607968 L302.56249,56.1702128 L293.144083,56.1702128 L284.250266,56.1702128 L284.250266,55.7607968 C286.776369,55.0454953 289.565573,54.1748982 289.565573,48.8571965 L289.565573,38.1182627 L289.565573,25.283621 L283.46096,25.283621 C279.620962,25.283621 277.041593,27.277367 274.938391,31.6758435 L274.042553,31.6758435 L276.568655,20.4255319 L277.46288,20.4255319 C277.672716,20.9369097 278.673472,21.9596653 280.883206,21.9596653 L292.143327,21.9596653 L308.928591,21.9596653 C310.192449,21.9596653 311.822713,21.142402 312.297265,20.4255319 L313.191489,20.4255319 Z" id="Fill-259"></path>
            <path d="M332.548671,57.8723404 C317.458497,57.8723404 311.489362,49.1097936 311.489362,40.0352701 C311.489362,33.2549755 316.26467,20.4255319 334.448471,20.4255319 C344.272153,20.4255319 354.042553,26.1099082 354.042553,38.2098062 C354.042553,48.8490131 345.412699,57.8723404 332.548671,57.8723404 M332.060817,23.3469141 C324.353389,23.3469141 320.172497,28.7177138 320.172497,36.9586994 C320.172497,48.9530053 327.228898,54.899762 334.013898,54.899762 C340.798898,54.899762 345.357753,50.2569081 345.357753,41.1823846 C345.357753,32.2646494 340.960406,23.3469141 332.060817,23.3469141" id="Fill-261"></path>
            <path d="M400,22.6472229 C397.440305,23.3229739 394.723534,24.2059128 394.723534,29.5051399 L394.723534,38.7536856 C394.723534,42.4416288 394.566458,57.8723404 394.566458,57.8723404 L393.625606,57.8723404 L367.395542,33.921428 L367.395542,38.6484979 L367.395542,49.6629213 C367.395542,54.9621484 370.113915,55.846681 372.673611,56.5208383 L372.673611,56.9894015 L364.313329,56.9894015 L357.938934,56.9894015 L357.938934,56.5208383 C360.49863,55.846681 363.217003,54.9621484 363.217003,49.6629213 L363.217003,38.6484979 C363.217003,29.452546 363.268293,30.077297 363.268293,30.077297 C363.268293,30.077297 364.366222,31.0638298 355.744681,22.8544107 L355.744681,22.1276596 L366.507582,22.1276596 L390.594683,44.0529126 L390.594683,39.3242489 L390.543393,29.5051399 C390.4905,24.2059128 387.825019,23.3229739 385.265324,22.6472229 L385.265324,22.1276596 L393.625606,22.1276596 L400,22.1276596 L400,22.6472229 Z" id="Fill-263"></path>
            <path d="M148.15728,79.8424876 L150.510277,72.2847286 L150.58386,72.2847286 L150.58386,79.8424876 L152.304049,79.8424876 L152.304049,69.9447465 L149.841496,69.9447465 L147.740314,76.8568464 L147.668367,76.8568464 L145.550832,69.9447465 L142.978723,69.9447465 L142.978723,79.8424876 L144.626966,79.8424876 L144.626966,72.2847286 L144.698913,72.2847286 L147.053546,79.8424876 L148.15728,79.8424876 Z M163.130454,69.9447465 L159.797995,79.8424876 L161.518185,79.8424876 L162.38809,77.1562619 L165.972365,77.1562619 L166.840635,79.8424876 L168.706355,79.8424876 L165.355909,69.9447465 L163.130454,69.9447465 Z M164.162241,71.7667823 L164.234188,71.7667823 L165.555398,75.8677818 L162.821408,75.8677818 L164.162241,71.7667823 Z M179.261322,80 C180.546559,80 181.396843,79.5288817 181.741862,78.6803012 L181.923365,79.8424876 L183.298536,79.8424876 L183.298536,74.9241262 L179.786209,74.9241262 L179.786209,76.1345596 L181.560359,76.1345596 L181.560359,76.3389001 C181.560359,77.800502 180.871956,78.6803012 179.514772,78.6803012 C178.030045,78.6803012 177.287682,77.5166958 177.287682,75.4591009 L177.287682,74.3281332 C177.287682,72.2691192 177.976085,71.1069329 179.460812,71.1069329 C180.909565,71.1069329 181.470425,72.1910725 181.470425,73.7931585 L181.470425,73.9194523 L183.226589,73.9194523 L183.226589,73.7931585 C183.226589,71.4049294 182.067259,69.787234 179.442825,69.787234 C176.834742,69.787234 175.385989,71.5000044 175.385989,74.5793017 L175.385989,75.2391511 C175.385989,78.3028389 176.834742,80 179.261322,80 Z M193.999033,69.9447465 L190.666574,79.8424876 L192.386763,79.8424876 L193.256669,77.1562619 L196.840943,77.1562619 L197.709214,79.8424876 L199.574933,79.8424876 L196.226123,69.9447465 L193.999033,69.9447465 Z M195.03082,71.7667823 L195.102767,71.7667823 L196.423977,75.8677818 L193.689987,75.8677818 L195.03082,71.7667823 Z M208.735108,78.5071794 L213.532672,71.1537609 L213.532672,69.9447465 L206.671534,69.9447465 L206.671534,71.2800546 L211.397151,71.2800546 L206.599587,78.6803012 L206.599587,79.8424876 L213.606254,79.8424876 L213.606254,78.5071794 L208.735108,78.5071794 Z M221.409245,79.8424876 L223.255342,79.8424876 L223.255342,69.9447465 L221.409245,69.9447465 L221.409245,79.8424876 Z M233.285423,69.9447465 L231.511273,69.9447465 L231.511273,79.8424876 L233.213476,79.8424876 L233.213476,72.7728752 L233.285423,72.7728752 L237.522127,79.8424876 L239.006853,79.8424876 L239.006853,69.9447465 L237.322637,69.9447465 L237.322637,76.7163623 L237.25069,76.7163623 L233.285423,69.9447465 Z M253.617021,78.5071794 L249.072907,78.5071794 L249.072907,75.4122728 L252.585234,75.4122728 L252.585234,74.1081834 L249.072907,74.1081834 L249.072907,71.2800546 L253.545074,71.2800546 L253.545074,69.9447465 L247.262784,69.9447465 L247.262784,79.8424876 L253.617021,79.8424876 L253.617021,78.5071794 Z" id="Fill-265"></path>
            <path d="M185.202559,10.212766 L185.202559,1.37787908 L188.219049,1.37787908 L188.219049,0 L180.425532,0 L180.425532,1.37787908 L183.388578,1.37787908 L183.388578,10.212766 L185.202559,10.212766 Z M194.970392,10.212766 L194.970392,5.64206717 L199.137519,5.64206717 L199.137519,10.212766 L200.968791,10.212766 L200.968791,0 L199.137519,0 L199.137519,4.29540677 L194.970392,4.29540677 L194.970392,0 L193.13912,0 L193.13912,10.212766 L194.970392,10.212766 Z M212.765957,8.83488688 L208.259299,8.83488688 L208.259299,5.64206717 L211.742646,5.64206717 L211.742646,4.29540677 L208.259299,4.29540677 L208.259299,1.37787908 L212.695222,1.37787908 L212.695222,0 L206.46418,0 L206.46418,10.212766 L212.765957,10.212766 L212.765957,8.83488688 Z" id="Fill-268"></path>
        </g>
    </g>
</svg>