<svg xmlns="http://www.w3.org/2000/svg" xmlns:xlink="http://www.w3.org/1999/xlink" width="500" height="500" version="1.1"><rect id="backgroundrect" width="100%" height="100%" x="0" y="0" fill="none" stroke="none"/>
    <!-- Generator: Sketch 51.2 (57519) - http://www.bohemiancoding.com/sketch -->
    <title>bm-search-global</title>
    <desc>Created with Sketch.</desc>
    <defs/>
    
<g class="currentLayer" style=""><title>Layer 1</title><g id="search-global" stroke="none" stroke-width="1" fill="none" fill-rule="evenodd" class="">
        <path d="M493.346579,461.204534 L364.363628,332.221583 C393.384459,296.002147 409.164522,250.957202 409.090899,204.54545 C409.090899,91.5795432 317.517038,0 204.54545,0 C91.5795432,0 0,91.5795432 0,204.54545 C0,317.511356 91.5795432,409.090899 204.54545,409.090899 C252.840903,409.090899 297.227266,392.352263 332.221583,364.357946 L461.204534,493.340897 C465.461473,497.609752 471.244067,500.006216 477.272716,499.999988 C486.464565,500.000323 494.751626,494.463866 498.269991,485.972034 C501.788355,477.480202 499.845217,467.705135 493.346579,461.204534 Z M204.54545,363.636355 C116.681815,363.636355 45.4545444,292.409084 45.4545444,204.54545 C45.4545444,116.681815 116.681815,45.4545444 204.54545,45.4545444 C292.414766,45.4545444 363.636355,116.681815 363.636355,204.54545 C363.636355,292.409084 292.414766,363.636355 204.54545,363.636355 Z" id="Shape-Copy" fill="#000000" fill-rule="nonzero"/>
    </g></g></svg>