<?xml version="1.0" encoding="UTF-8"?>
<svg width="500px" height="500px" viewBox="0 0 500 500" version="1.1" xmlns="http://www.w3.org/2000/svg" xmlns:xlink="http://www.w3.org/1999/xlink">
    <!-- Generator: Sketch 51.2 (57519) - http://www.bohemiancoding.com/sketch -->
    <title>bm-search - searchform</title>
    <desc>Created with Sketch.</desc>
    <defs></defs>
    <g id="search---searchform" stroke="none" stroke-width="1" fill="none" fill-rule="evenodd">
        <path d="M493.345119,461.204534 L364.362549,332.221583 C393.383294,296.002147 409.163311,250.957202 409.089688,204.54545 C409.089688,91.5795432 317.516098,0 204.544844,0 C91.5792722,0 0,91.5795432 0,204.54545 C0,317.511356 91.5792722,409.090899 204.544844,409.090899 C252.840155,409.090899 297.226386,392.352263 332.2206,364.357946 L461.203169,493.340897 C465.460095,497.609752 471.242672,500.006216 477.271303,499.999988 C486.463126,500.000323 494.750162,494.463866 498.268516,485.972034 C501.78687,477.480202 499.843737,467.705135 493.345119,461.204534 Z M204.544844,363.636355 C116.68147,363.636355 45.4544098,292.409084 45.4544098,204.54545 C45.4544098,116.681815 116.68147,45.4545444 204.544844,45.4545444 C292.4139,45.4545444 363.635278,116.681815 363.635278,204.54545 C363.635278,292.409084 292.4139,363.636355 204.544844,363.636355 Z" id="Shape-Copy-3" stroke="#000000" stroke-width="0.7" fill="#000000" fill-rule="nonzero"></path>
    </g>
</svg>