<?xml version="1.0" encoding="UTF-8"?>
<svg width="447px" height="500px" viewBox="0 0 447 500" version="1.1" xmlns="http://www.w3.org/2000/svg" xmlns:xlink="http://www.w3.org/1999/xlink">
    <!-- Generator: Sketch 51.2 (57519) - http://www.bohemiancoding.com/sketch -->
    <title>bm-share</title>
    <desc>Created with Sketch.</desc>
    <defs></defs>
    <g id="share" stroke="none" stroke-width="1" fill="none" fill-rule="evenodd">
        <path d="M372.02381,349.464286 C353.184524,349.464286 336.190476,356.785714 323.303571,368.571429 L146.577381,265.505952 C147.946429,259.910714 148.809524,254.077381 148.809524,248.125 C148.809524,242.172619 147.946429,236.369048 146.577381,230.77381 L321.428571,128.720238 C335.117967,141.618595 353.215111,148.804226 372.02381,148.809524 C413.065476,148.809524 446.428571,115.446429 446.428571,74.4047619 C446.428571,33.3630952 413.065476,0 372.02381,0 C330.982143,0 297.619048,33.3630952 297.619048,74.4047619 C297.619048,80.3571429 298.482143,86.1904762 299.85119,91.7559524 L125,193.809524 C111.302402,180.92406 93.2105844,173.740544 74.4047619,173.720238 C33.3630952,173.720238 0,207.083333 0,248.125 C0,289.166667 33.3630952,322.529762 74.4047619,322.529762 C93.2134604,322.524464 111.310605,315.338834 125,302.440476 L301.72619,405.505952 C300.424648,410.82533 299.755338,416.279708 299.732143,421.755952 C299.74858,461.657347 332.102566,493.993568 372.003964,493.988088 C411.905362,493.982609 444.250466,461.637505 444.255946,421.736107 C444.261425,381.834709 411.925204,349.480723 372.02381,349.464286 Z" id="Shape" fill="#000000" fill-rule="nonzero"></path>
    </g>
</svg>