<?xml version="1.0" encoding="UTF-8"?>
<svg width="500px" height="400px" viewBox="0 0 500 400" version="1.1" xmlns="http://www.w3.org/2000/svg" xmlns:xlink="http://www.w3.org/1999/xlink">
    <!-- Generator: Sketch 51.2 (57519) - http://www.bohemiancoding.com/sketch -->
    <title>bm-twitter</title>
    <desc>Created with Sketch.</desc>
    <defs></defs>
    <g id="twitter" stroke="none" stroke-width="1" fill="none" fill-rule="evenodd">
        <path d="M157.24,400 C345.92,400 449.12,246.096054 449.12,112.631244 C449.12,108.259868 449.12,103.908183 448.82,99.5761887 C468.896627,85.2788518 486.227109,67.576128 500,47.2968926 C481.277581,55.4647061 461.416586,60.8211556 441.08,63.1874357 C462.49488,50.565226 478.52247,30.7126788 486.18,7.32439891 C466.04315,19.088822 444.012922,27.3798006 421.04,31.839549 C389.241655,-1.44997149 338.714387,-9.59769868 297.790985,11.9651449 C256.867584,33.5279885 235.7255,79.4388286 246.22,123.953503 C163.737915,119.882403 86.8895156,81.5260139 34.8,18.4300573 C7.57245513,64.5784928 21.4797577,123.615991 66.56,153.253537 C50.234824,152.777167 34.2655874,148.441345 20,140.61199 C20,141.025499 20,141.458698 20,141.891898 C20.0133627,189.969021 54.4350298,231.377811 102.3,240.89766 C87.1973919,244.952802 71.3516117,245.545581 55.98,242.630458 C69.4189586,283.77304 107.931491,311.957803 151.82,312.769386 C115.494701,340.876782 70.6211902,356.135165 24.42,356.08933 C16.2580714,356.073903 8.10408131,355.587359 0,354.632204 C46.912719,384.27243 101.498268,399.994426 157.24,399.921236" id="Shape-Copy-3" fill="#000000" fill-rule="nonzero"></path>
    </g>
</svg>